G04 start of page 12 for group -4014 idx -4014 *
G04 Title: (unknown), bottompaste *
G04 Creator: pcb 20140316 *
G04 CreationDate: Mon 04 Mar 2019 12:45:45 AM GMT UTC *
G04 For: railfan *
G04 Format: Gerber/RS-274X *
G04 PCB-Dimensions (mil): 4700.00 620.00 *
G04 PCB-Coordinate-Origin: lower left *
%MOIN*%
%FSLAX25Y25*%
%LNBOTTOMPASTE*%
%ADD56R,0.0800X0.0800*%
%ADD55R,0.0787X0.0787*%
%ADD54R,0.0472X0.0472*%
G54D54*X17882Y38130D02*X28118D01*
G54D55*X20244Y19232D02*X25756D01*
G54D56*X40500Y46500D02*Y37000D01*
Y26000D02*Y16500D01*
G54D54*X63882Y38130D02*X74118D01*
G54D55*X66244Y19232D02*X71756D01*
G54D56*X86500Y46500D02*Y37000D01*
Y26000D02*Y16500D01*
G54D54*X109882Y38130D02*X120118D01*
G54D55*X112244Y19232D02*X117756D01*
G54D56*X132500Y46500D02*Y37000D01*
Y26000D02*Y16500D01*
G54D54*X155882Y38130D02*X166118D01*
G54D55*X158244Y19232D02*X163756D01*
G54D56*X178500Y46500D02*Y37000D01*
Y26000D02*Y16500D01*
G54D54*X201882Y38130D02*X212118D01*
G54D55*X204244Y19232D02*X209756D01*
G54D56*X224500Y46500D02*Y37000D01*
Y26000D02*Y16500D01*
G54D54*X247882Y38130D02*X258118D01*
G54D55*X250244Y19232D02*X255756D01*
G54D56*X270500Y46500D02*Y37000D01*
Y26000D02*Y16500D01*
G54D54*X293882Y38130D02*X304118D01*
G54D55*X296244Y19232D02*X301756D01*
G54D56*X316500Y46500D02*Y37000D01*
Y26000D02*Y16500D01*
G54D54*X339882Y38130D02*X350118D01*
G54D55*X342244Y19232D02*X347756D01*
G54D56*X362500Y46500D02*Y37000D01*
Y26000D02*Y16500D01*
G54D54*X385882Y38130D02*X396118D01*
G54D55*X388244Y19232D02*X393756D01*
G54D56*X408500Y46500D02*Y37000D01*
Y26000D02*Y16500D01*
G54D54*X431882Y38130D02*X442118D01*
G54D55*X434244Y19232D02*X439756D01*
G54D56*X454500Y46500D02*Y37000D01*
Y26000D02*Y16500D01*
M02*
