G04 start of page 8 for group -4079 idx -4079 *
G04 Title: (unknown), topsilk *
G04 Creator: pcb 20140316 *
G04 CreationDate: Sun 31 Mar 2019 02:26:02 PM GMT UTC *
G04 For: railfan *
G04 Format: Gerber/RS-274X *
G04 PCB-Dimensions (mil): 4700.00 620.00 *
G04 PCB-Coordinate-Origin: lower left *
%MOIN*%
%FSLAX25Y25*%
%LNTOPSILK*%
%ADD43C,0.0060*%
%ADD42C,0.0100*%
G54D42*X137500Y11500D02*X102500D01*
X183500D02*X148500D01*
X229500D02*X194500D01*
X137500Y51500D02*Y11500D01*
X148500D02*Y51500D01*
X183500D01*
X102500D02*X137500D01*
X240500D02*X275500D01*
X183500D02*Y11500D01*
X229500Y51500D02*Y11500D01*
X194500D02*Y51500D01*
X229500D01*
X240500Y11500D02*Y51500D01*
X45500D02*Y11500D01*
X10500D01*
X91500D02*X56500D01*
X91500Y51500D02*Y11500D01*
X56500D02*Y51500D01*
X91500D01*
X10500D02*X45500D01*
X10500Y11500D02*Y51500D01*
X102500Y11500D02*Y51500D01*
X275500Y11500D02*X240500D01*
X321500D02*X286500D01*
X367500D02*X332500D01*
X275500Y51500D02*Y11500D01*
X286500D02*Y51500D01*
X321500D01*
Y11500D01*
X367500Y51500D02*Y11500D01*
X332500D02*Y51500D01*
X367500D01*
X413500Y11500D02*X378500D01*
X459500D02*X424500D01*
X413500Y51500D02*Y11500D01*
X378500Y51500D02*X413500D01*
X459500D02*Y11500D01*
X424500D02*Y51500D01*
X459500D01*
X378500Y11500D02*Y51500D01*
X221745Y44693D02*Y43907D01*
X227255Y44693D02*Y43907D01*
X198394Y44744D02*X207449D01*
X198394Y50256D02*X207449D01*
X229421Y36598D02*Y11402D01*
X219579Y36598D02*Y11402D01*
Y36598D02*X229421D01*
X219579Y11402D02*X229421D01*
X219579Y28724D02*X229421D01*
X219402Y41870D02*Y13130D01*
X194598Y41870D02*Y13130D01*
X244394Y44744D02*X253449D01*
X244394Y50256D02*X253449D01*
X265402Y41870D02*Y13130D01*
X240598Y41870D02*Y13130D01*
X290394Y44744D02*X299449D01*
X290394Y50256D02*X299449D01*
X267745Y44693D02*Y43907D01*
X273255Y44693D02*Y43907D01*
X275421Y36598D02*Y11402D01*
X265579Y36598D02*Y11402D01*
Y36598D02*X275421D01*
X265579Y11402D02*X275421D01*
X265579Y28724D02*X275421D01*
X311402Y41870D02*Y13130D01*
X286598Y41870D02*Y13130D01*
X313745Y44693D02*Y43907D01*
X319255Y44693D02*Y43907D01*
X321421Y36598D02*Y11402D01*
X311579Y36598D02*Y11402D01*
Y36598D02*X321421D01*
X311579Y11402D02*X321421D01*
X311579Y28724D02*X321421D01*
X336394Y44744D02*X345449D01*
X336394Y50256D02*X345449D01*
X359745Y44693D02*Y43907D01*
X365255Y44693D02*Y43907D01*
X367421Y36598D02*Y11402D01*
X357579Y36598D02*Y11402D01*
Y36598D02*X367421D01*
X357579Y11402D02*X367421D01*
X357579Y28724D02*X367421D01*
X357402Y41870D02*Y13130D01*
X332598Y41870D02*Y13130D01*
X405745Y44693D02*Y43907D01*
X411255Y44693D02*Y43907D01*
X382394Y44744D02*X391449D01*
X382394Y50256D02*X391449D01*
X413421Y36598D02*Y11402D01*
X403579Y36598D02*Y11402D01*
Y36598D02*X413421D01*
X403579Y11402D02*X413421D01*
X403579Y28724D02*X413421D01*
X403402Y41870D02*Y13130D01*
X378598Y41870D02*Y13130D01*
X428394Y44744D02*X437449D01*
X428394Y50256D02*X437449D01*
X449402Y41870D02*Y13130D01*
X424598Y41870D02*Y13130D01*
X451745Y44693D02*Y43907D01*
X457255Y44693D02*Y43907D01*
X459421Y36598D02*Y11402D01*
X449579Y36598D02*Y11402D01*
Y36598D02*X459421D01*
X449579Y11402D02*X459421D01*
X449579Y28724D02*X459421D01*
X106394Y44744D02*X115449D01*
X106394Y50256D02*X115449D01*
X83745Y44693D02*Y43907D01*
X89255Y44693D02*Y43907D01*
X127402Y41870D02*Y13130D01*
X102598Y41870D02*Y13130D01*
X37745Y44693D02*Y43907D01*
X43255Y44693D02*Y43907D01*
X14394Y44744D02*X23449D01*
X14394Y50256D02*X23449D01*
X35402Y41870D02*Y13130D01*
X10598Y41870D02*Y13130D01*
X45421Y36598D02*Y11402D01*
X35579Y36598D02*Y11402D01*
Y36598D02*X45421D01*
X35579Y11402D02*X45421D01*
X35579Y28724D02*X45421D01*
X60394Y44744D02*X69449D01*
X60394Y50256D02*X69449D01*
X91421Y36598D02*Y11402D01*
X81579Y36598D02*Y11402D01*
Y36598D02*X91421D01*
X81579Y11402D02*X91421D01*
X81579Y28724D02*X91421D01*
X81402Y41870D02*Y13130D01*
X56598Y41870D02*Y13130D01*
X129745Y44693D02*Y43907D01*
X135255Y44693D02*Y43907D01*
X137421Y36598D02*Y11402D01*
X127579Y36598D02*Y11402D01*
Y36598D02*X137421D01*
X127579Y11402D02*X137421D01*
X127579Y28724D02*X137421D01*
X152394Y44744D02*X161449D01*
X152394Y50256D02*X161449D01*
X175745Y44693D02*Y43907D01*
X181255Y44693D02*Y43907D01*
X183421Y36598D02*Y11402D01*
X173579Y36598D02*Y11402D01*
Y36598D02*X183421D01*
X173579Y11402D02*X183421D01*
X173579Y28724D02*X183421D01*
X173402Y41870D02*Y13130D01*
X148598Y41870D02*Y13130D01*
G54D43*X222000Y25500D02*X224500D01*
Y25000D01*
X222000Y22500D02*X224500Y25000D01*
X222000Y22500D02*Y21500D01*
X224500D01*
X226200D02*X227200D01*
X226700Y25500D02*Y21500D01*
X225700Y24500D02*X226700Y25500D01*
X268000D02*X270500D01*
Y25000D01*
X268000Y22500D02*X270500Y25000D01*
X268000Y22500D02*Y21500D01*
X270500D01*
X272200D02*X273200D01*
X272700Y25500D02*Y21500D01*
X271700Y24500D02*X272700Y25500D01*
X314000D02*X316500D01*
Y25000D01*
X314000Y22500D02*X316500Y25000D01*
X314000Y22500D02*Y21500D01*
X316500D01*
X318200D02*X319200D01*
X318700Y25500D02*Y21500D01*
X317700Y24500D02*X318700Y25500D01*
X360000D02*X362500D01*
Y25000D01*
X360000Y22500D02*X362500Y25000D01*
X360000Y22500D02*Y21500D01*
X362500D01*
X364200D02*X365200D01*
X364700Y25500D02*Y21500D01*
X363700Y24500D02*X364700Y25500D01*
X406000D02*X408500D01*
Y25000D01*
X406000Y22500D02*X408500Y25000D01*
X406000Y22500D02*Y21500D01*
X408500D01*
X410200D02*X411200D01*
X410700Y25500D02*Y21500D01*
X409700Y24500D02*X410700Y25500D01*
X452000D02*X454500D01*
Y25000D01*
X452000Y22500D02*X454500Y25000D01*
X452000Y22500D02*Y21500D01*
X454500D01*
X456200D02*X457200D01*
X456700Y25500D02*Y21500D01*
X455700Y24500D02*X456700Y25500D01*
X84000D02*X86500D01*
Y25000D01*
X84000Y22500D02*X86500Y25000D01*
X84000Y22500D02*Y21500D01*
X86500D01*
X88200D02*X89200D01*
X88700Y25500D02*Y21500D01*
X87700Y24500D02*X88700Y25500D01*
X38000D02*X40500D01*
Y25000D01*
X38000Y22500D02*X40500Y25000D01*
X38000Y22500D02*Y21500D01*
X40500D01*
X42200D02*X43200D01*
X42700Y25500D02*Y21500D01*
X41700Y24500D02*X42700Y25500D01*
X130000D02*X132500D01*
Y25000D01*
X130000Y22500D02*X132500Y25000D01*
X130000Y22500D02*Y21500D01*
X132500D01*
X134200D02*X135200D01*
X134700Y25500D02*Y21500D01*
X133700Y24500D02*X134700Y25500D01*
X176000D02*X178500D01*
Y25000D01*
X176000Y22500D02*X178500Y25000D01*
X176000Y22500D02*Y21500D01*
X178500D01*
X180200D02*X181200D01*
X180700Y25500D02*Y21500D01*
X179700Y24500D02*X180700Y25500D01*
M02*
