M48
INCH
T31C0.012
%
T31
X001500Y002800
X001850Y002800
X002200Y002800
X002600Y003200
X002950Y003200
X003300Y003200
X003600Y004900
X003600Y004600
X006100Y002800
X006450Y002800
X006800Y002800
X007200Y003200
X007550Y003200
X007900Y003200
X008200Y004900
X008200Y004600
X010700Y002800
X011050Y002800
X011400Y002800
X011800Y003200
X012150Y003200
X012500Y003200
X012800Y004900
X012800Y004600
X015300Y002800
X015650Y002800
X016000Y002800
X016400Y003200
X016750Y003200
X017100Y003200
X017400Y004900
X017400Y004600
X019900Y002800
X020250Y002800
X020600Y002800
X021000Y003200
X021350Y003200
X021700Y003200
X022000Y004900
X022000Y004600
X024500Y002800
X024850Y002800
X025200Y002800
X025600Y003200
X025950Y003200
X026300Y003200
X026600Y004900
X026600Y004600
X029100Y002800
X029450Y002800
X029800Y002800
X030200Y003200
X030550Y003200
X030900Y003200
X031200Y004900
X031200Y004600
X033700Y002800
X034050Y002800
X034400Y002800
X034800Y003200
X035150Y003200
X035500Y003200
X035800Y004900
X035800Y004600
X038300Y002800
X038650Y002800
X039000Y002800
X039400Y003200
X039750Y003200
X040100Y003200
X040400Y004900
X040400Y004600
X042900Y002800
X043250Y002800
X043600Y002800
X044000Y003200
X044350Y003200
X044700Y003200
X045000Y004900
X045000Y004600
M30
