G04 start of page 10 for group -4015 idx -4015 *
G04 Title: (unknown), toppaste *
G04 Creator: pcb 20140316 *
G04 CreationDate: Sun 31 Mar 2019 02:26:02 PM GMT UTC *
G04 For: railfan *
G04 Format: Gerber/RS-274X *
G04 PCB-Dimensions (mil): 4700.00 620.00 *
G04 PCB-Coordinate-Origin: lower left *
%MOIN*%
%FSLAX25Y25*%
%LNTOPPASTE*%
%ADD53R,0.0600X0.0600*%
%ADD52R,0.0433X0.0433*%
%ADD51C,0.0001*%
%ADD50R,0.0512X0.0512*%
%ADD49R,0.0551X0.0551*%
%ADD48R,0.0787X0.0787*%
%ADD47R,0.0472X0.0472*%
G54D47*X17882Y38130D02*X28118D01*
G54D48*X20244Y19232D02*X25756D01*
G54D49*X39319Y32661D02*X41681D01*
X39319Y15339D02*X41681D01*
G54D50*X40107Y40757D02*X40893D01*
X40107Y47843D02*X40893D01*
G54D51*G36*
X12425Y49075D02*Y45925D01*
X15575D01*
Y49075D01*
X12425D01*
G37*
G54D52*X19709Y47500D02*X23252D01*
G54D53*X30000D02*X31000D01*
X76000D02*X77000D01*
G54D51*G36*
X58425Y49075D02*Y45925D01*
X61575D01*
Y49075D01*
X58425D01*
G37*
G54D52*X65709Y47500D02*X69252D01*
G54D50*X86107Y40757D02*X86893D01*
X86107Y47843D02*X86893D01*
G54D49*X85319Y32661D02*X87681D01*
X85319Y15339D02*X87681D01*
G54D47*X63882Y38130D02*X74118D01*
G54D48*X66244Y19232D02*X71756D01*
G54D53*X122000Y47500D02*X123000D01*
G54D51*G36*
X104425Y49075D02*Y45925D01*
X107575D01*
Y49075D01*
X104425D01*
G37*
G54D52*X111709Y47500D02*X115252D01*
G54D50*X132107Y40757D02*X132893D01*
X132107Y47843D02*X132893D01*
G54D49*X131319Y32661D02*X133681D01*
X131319Y15339D02*X133681D01*
G54D47*X109882Y38130D02*X120118D01*
G54D48*X112244Y19232D02*X117756D01*
G54D53*X168000Y47500D02*X169000D01*
G54D51*G36*
X150425Y49075D02*Y45925D01*
X153575D01*
Y49075D01*
X150425D01*
G37*
G54D52*X157709Y47500D02*X161252D01*
G54D50*X178107Y40757D02*X178893D01*
X178107Y47843D02*X178893D01*
G54D49*X177319Y32661D02*X179681D01*
X177319Y15339D02*X179681D01*
G54D47*X155882Y38130D02*X166118D01*
G54D48*X158244Y19232D02*X163756D01*
G54D53*X214000Y47500D02*X215000D01*
G54D51*G36*
X196425Y49075D02*Y45925D01*
X199575D01*
Y49075D01*
X196425D01*
G37*
G54D52*X203709Y47500D02*X207252D01*
G54D50*X224107Y40757D02*X224893D01*
X224107Y47843D02*X224893D01*
G54D49*X223319Y32661D02*X225681D01*
X223319Y15339D02*X225681D01*
G54D47*X201882Y38130D02*X212118D01*
G54D48*X204244Y19232D02*X209756D01*
G54D53*X260000Y47500D02*X261000D01*
G54D51*G36*
X242425Y49075D02*Y45925D01*
X245575D01*
Y49075D01*
X242425D01*
G37*
G54D52*X249709Y47500D02*X253252D01*
G54D50*X270107Y40757D02*X270893D01*
X270107Y47843D02*X270893D01*
G54D49*X269319Y32661D02*X271681D01*
X269319Y15339D02*X271681D01*
G54D47*X247882Y38130D02*X258118D01*
G54D48*X250244Y19232D02*X255756D01*
G54D53*X306000Y47500D02*X307000D01*
G54D51*G36*
X288425Y49075D02*Y45925D01*
X291575D01*
Y49075D01*
X288425D01*
G37*
G54D52*X295709Y47500D02*X299252D01*
G54D50*X316107Y40757D02*X316893D01*
X316107Y47843D02*X316893D01*
G54D49*X315319Y32661D02*X317681D01*
X315319Y15339D02*X317681D01*
G54D47*X293882Y38130D02*X304118D01*
G54D48*X296244Y19232D02*X301756D01*
G54D53*X352000Y47500D02*X353000D01*
G54D51*G36*
X334425Y49075D02*Y45925D01*
X337575D01*
Y49075D01*
X334425D01*
G37*
G54D52*X341709Y47500D02*X345252D01*
G54D50*X362107Y40757D02*X362893D01*
X362107Y47843D02*X362893D01*
G54D49*X361319Y32661D02*X363681D01*
X361319Y15339D02*X363681D01*
G54D47*X339882Y38130D02*X350118D01*
G54D48*X342244Y19232D02*X347756D01*
G54D53*X398000Y47500D02*X399000D01*
G54D51*G36*
X380425Y49075D02*Y45925D01*
X383575D01*
Y49075D01*
X380425D01*
G37*
G54D52*X387709Y47500D02*X391252D01*
G54D50*X408107Y40757D02*X408893D01*
X408107Y47843D02*X408893D01*
G54D49*X407319Y32661D02*X409681D01*
X407319Y15339D02*X409681D01*
G54D47*X385882Y38130D02*X396118D01*
G54D48*X388244Y19232D02*X393756D01*
G54D53*X444000Y47500D02*X445000D01*
G54D51*G36*
X426425Y49075D02*Y45925D01*
X429575D01*
Y49075D01*
X426425D01*
G37*
G54D52*X433709Y47500D02*X437252D01*
G54D50*X454107Y40757D02*X454893D01*
X454107Y47843D02*X454893D01*
G54D49*X453319Y32661D02*X455681D01*
X453319Y15339D02*X455681D01*
G54D47*X431882Y38130D02*X442118D01*
G54D48*X434244Y19232D02*X439756D01*
M02*
