G04 start of page 7 for group -4062 idx -4062 *
G04 Title: (unknown), soldermask *
G04 Creator: pcb 20140316 *
G04 CreationDate: Sun 31 Mar 2019 02:26:02 PM GMT UTC *
G04 For: railfan *
G04 Format: Gerber/RS-274X *
G04 PCB-Dimensions (mil): 4700.00 620.00 *
G04 PCB-Coordinate-Origin: lower left *
%MOIN*%
%FSLAX25Y25*%
%LNBOTTOMMASK*%
%ADD41R,0.0926X0.0926*%
%ADD40R,0.1399X0.1399*%
%ADD39R,0.0880X0.0880*%
G54D39*X178500Y26000D02*Y16500D01*
Y46500D02*Y37000D01*
X224500Y26000D02*Y16500D01*
G54D40*X204244Y19232D02*X209756D01*
X204244D02*X209756D01*
G54D41*X201882Y38130D02*X212118D01*
X155882D02*X166118D01*
X155882D02*X166118D01*
X201882D02*X212118D01*
G54D39*X224500Y46500D02*Y37000D01*
X270500Y46500D02*Y37000D01*
G54D40*X250244Y19232D02*X255756D01*
X250244D02*X255756D01*
G54D39*X86500Y46500D02*Y37000D01*
G54D41*X63882Y38130D02*X74118D01*
X63882D02*X74118D01*
X17882D02*X28118D01*
X17882D02*X28118D01*
G54D40*X20244Y19232D02*X25756D01*
X20244D02*X25756D01*
G54D39*X40500Y26000D02*Y16500D01*
Y46500D02*Y37000D01*
X86500Y26000D02*Y16500D01*
X132500Y26000D02*Y16500D01*
G54D40*X112244Y19232D02*X117756D01*
G54D39*X132500Y46500D02*Y37000D01*
G54D40*X158244Y19232D02*X163756D01*
X158244D02*X163756D01*
X66244D02*X71756D01*
X66244D02*X71756D01*
X112244D02*X117756D01*
G54D41*X109882Y38130D02*X120118D01*
X109882D02*X120118D01*
X247882D02*X258118D01*
X247882D02*X258118D01*
X293882D02*X304118D01*
G54D39*X270500Y26000D02*Y16500D01*
G54D40*X296244Y19232D02*X301756D01*
X296244D02*X301756D01*
G54D41*X293882Y38130D02*X304118D01*
G54D39*X316500Y26000D02*Y16500D01*
Y46500D02*Y37000D01*
X362500Y26000D02*Y16500D01*
G54D40*X342244Y19232D02*X347756D01*
X342244D02*X347756D01*
G54D39*X362500Y46500D02*Y37000D01*
G54D41*X339882Y38130D02*X350118D01*
X339882D02*X350118D01*
X385882D02*X396118D01*
X431882D02*X442118D01*
X431882D02*X442118D01*
G54D39*X408500Y26000D02*Y16500D01*
G54D40*X388244Y19232D02*X393756D01*
X388244D02*X393756D01*
G54D39*X408500Y46500D02*Y37000D01*
G54D41*X385882Y38130D02*X396118D01*
G54D39*X454500Y26000D02*Y16500D01*
G54D40*X434244Y19232D02*X439756D01*
X434244D02*X439756D01*
G54D39*X454500Y46500D02*Y37000D01*
M02*
