G04 start of page 2 for group 0 idx 0 *
G04 Title: (unknown), component *
G04 Creator: pcb 20140316 *
G04 CreationDate: Sun 31 Mar 2019 02:26:02 PM GMT UTC *
G04 For: railfan *
G04 Format: Gerber/RS-274X *
G04 PCB-Dimensions (mil): 4700.00 620.00 *
G04 PCB-Coordinate-Origin: lower left *
%MOIN*%
%FSLAX25Y25*%
%LNTOP*%
%ADD21C,0.0120*%
%ADD20C,0.0280*%
%ADD19R,0.0472X0.0472*%
%ADD18R,0.0866X0.0866*%
%ADD17R,0.0433X0.0433*%
%ADD16R,0.0600X0.0600*%
%ADD15R,0.0787X0.0787*%
%ADD14R,0.1339X0.1339*%
%ADD13R,0.0512X0.0512*%
%ADD12R,0.0551X0.0551*%
%ADD11C,0.0001*%
G54D11*G36*
X59000Y26000D02*Y30000D01*
X69000D01*
X73000Y26000D01*
X59000D01*
G37*
G36*
X105000D02*Y30000D01*
X115000D01*
X119000Y26000D01*
X105000D01*
G37*
G36*
X151000D02*Y30000D01*
X161000D01*
X165000Y26000D01*
X151000D01*
G37*
G36*
X197000D02*Y30000D01*
X207000D01*
X211000Y26000D01*
X197000D01*
G37*
G36*
X59000Y12500D02*Y27000D01*
X80000D01*
Y12500D01*
X59000D01*
G37*
G36*
X105000D02*Y27000D01*
X126000D01*
Y12500D01*
X105000D01*
G37*
G36*
X136500D02*X105000D01*
Y19000D01*
X136500D01*
Y12500D01*
G37*
G36*
X104000Y49500D02*X108000D01*
Y41500D01*
X104000D01*
Y49500D01*
G37*
G36*
X136500Y43500D02*Y29500D01*
X117500D01*
X115500Y31500D01*
X104000D01*
Y43500D01*
X136500D01*
G37*
G36*
X109500Y50500D02*X136500D01*
Y44500D01*
X109500D01*
Y50500D01*
G37*
G36*
X58000Y49500D02*X62000D01*
Y41500D01*
X58000D01*
Y49500D01*
G37*
G36*
X17500Y50500D02*X44500D01*
Y44500D01*
X17500D01*
Y50500D01*
G37*
G36*
X44500Y12500D02*X13000D01*
Y19000D01*
X44500D01*
Y12500D01*
G37*
G36*
X13000D02*Y27000D01*
X34000D01*
Y12500D01*
X13000D01*
G37*
G36*
X44500Y43500D02*Y29500D01*
X25500D01*
X23500Y31500D01*
X12000D01*
Y43500D01*
X44500D01*
G37*
G36*
X13000Y26000D02*Y30000D01*
X23000D01*
X27000Y26000D01*
X13000D01*
G37*
G36*
X12000Y49500D02*X16000D01*
Y41500D01*
X12000D01*
Y49500D01*
G37*
G36*
X90500Y43500D02*Y29500D01*
X71500D01*
X69500Y31500D01*
X58000D01*
Y43500D01*
X90500D01*
G37*
G36*
X63500Y50500D02*X90500D01*
Y44500D01*
X63500D01*
Y50500D01*
G37*
G36*
X90500Y12500D02*X59000D01*
Y19000D01*
X90500D01*
Y12500D01*
G37*
G36*
X151000D02*Y27000D01*
X172000D01*
Y12500D01*
X151000D01*
G37*
G36*
X197000D02*Y27000D01*
X218000D01*
Y12500D01*
X197000D01*
G37*
G36*
X228500D02*X197000D01*
Y19000D01*
X228500D01*
Y12500D01*
G37*
G36*
X182500D02*X151000D01*
Y19000D01*
X182500D01*
Y12500D01*
G37*
G36*
X155500Y50500D02*X182500D01*
Y44500D01*
X155500D01*
Y50500D01*
G37*
G36*
X196000Y49500D02*X200000D01*
Y41500D01*
X196000D01*
Y49500D01*
G37*
G36*
X150000D02*X154000D01*
Y41500D01*
X150000D01*
Y49500D01*
G37*
G36*
X182500Y43500D02*Y29500D01*
X163500D01*
X161500Y31500D01*
X150000D01*
Y43500D01*
X182500D01*
G37*
G36*
X228500D02*Y29500D01*
X209500D01*
X207500Y31500D01*
X196000D01*
Y43500D01*
X228500D01*
G37*
G36*
X201500Y50500D02*X228500D01*
Y44500D01*
X201500D01*
Y50500D01*
G37*
G36*
X242000Y49500D02*X246000D01*
Y41500D01*
X242000D01*
Y49500D01*
G37*
G36*
X243000Y26000D02*Y30000D01*
X253000D01*
X257000Y26000D01*
X243000D01*
G37*
G36*
X274500Y43500D02*Y29500D01*
X255500D01*
X253500Y31500D01*
X242000D01*
Y43500D01*
X274500D01*
G37*
G36*
X243000Y12500D02*Y27000D01*
X264000D01*
Y12500D01*
X243000D01*
G37*
G36*
X274500D02*X243000D01*
Y19000D01*
X274500D01*
Y12500D01*
G37*
G36*
X247500Y50500D02*X274500D01*
Y44500D01*
X247500D01*
Y50500D01*
G37*
G36*
X288000Y49500D02*X292000D01*
Y41500D01*
X288000D01*
Y49500D01*
G37*
G36*
X289000Y26000D02*Y30000D01*
X299000D01*
X303000Y26000D01*
X289000D01*
G37*
G36*
X320500Y43500D02*Y29500D01*
X301500D01*
X299500Y31500D01*
X288000D01*
Y43500D01*
X320500D01*
G37*
G36*
X289000Y12500D02*Y27000D01*
X310000D01*
Y12500D01*
X289000D01*
G37*
G36*
X320500D02*X289000D01*
Y19000D01*
X320500D01*
Y12500D01*
G37*
G36*
X293500Y50500D02*X320500D01*
Y44500D01*
X293500D01*
Y50500D01*
G37*
G36*
X334000Y49500D02*X338000D01*
Y41500D01*
X334000D01*
Y49500D01*
G37*
G36*
X335000Y26000D02*Y30000D01*
X345000D01*
X349000Y26000D01*
X335000D01*
G37*
G36*
Y12500D02*Y27000D01*
X356000D01*
Y12500D01*
X335000D01*
G37*
G36*
X366500D02*X335000D01*
Y19000D01*
X366500D01*
Y12500D01*
G37*
G36*
X381000D02*Y27000D01*
X402000D01*
Y12500D01*
X381000D01*
G37*
G36*
X412500D02*X381000D01*
Y19000D01*
X412500D01*
Y12500D01*
G37*
G36*
X366500Y43500D02*Y29500D01*
X347500D01*
X345500Y31500D01*
X334000D01*
Y43500D01*
X366500D01*
G37*
G36*
X339500Y50500D02*X366500D01*
Y44500D01*
X339500D01*
Y50500D01*
G37*
G36*
X380000Y49500D02*X384000D01*
Y41500D01*
X380000D01*
Y49500D01*
G37*
G36*
X381000Y26000D02*Y30000D01*
X391000D01*
X395000Y26000D01*
X381000D01*
G37*
G36*
X412500Y43500D02*Y29500D01*
X393500D01*
X391500Y31500D01*
X380000D01*
Y43500D01*
X412500D01*
G37*
G36*
X385500Y50500D02*X412500D01*
Y44500D01*
X385500D01*
Y50500D01*
G37*
G36*
X426000Y49500D02*X430000D01*
Y41500D01*
X426000D01*
Y49500D01*
G37*
G36*
X427000Y26000D02*Y30000D01*
X437000D01*
X441000Y26000D01*
X427000D01*
G37*
G36*
Y12500D02*Y27000D01*
X448000D01*
Y12500D01*
X427000D01*
G37*
G36*
X458500D02*X427000D01*
Y19000D01*
X458500D01*
Y12500D01*
G37*
G36*
Y43500D02*Y29500D01*
X439500D01*
X437500Y31500D01*
X426000D01*
Y43500D01*
X458500D01*
G37*
G36*
X431500Y50500D02*X458500D01*
Y44500D01*
X431500D01*
Y50500D01*
G37*
G54D12*X177319Y15339D02*X179681D01*
G54D13*X178107Y40757D02*X178893D01*
X178107Y47843D02*X178893D01*
G54D12*X177319Y32661D02*X179681D01*
X223319Y15339D02*X225681D01*
G54D14*X204244Y19232D02*X209756D01*
G54D15*X204244D02*X209756D01*
G54D16*X168000Y47500D02*X169000D01*
G54D11*G36*
X150425Y49075D02*Y45925D01*
X153575D01*
Y49075D01*
X150425D01*
G37*
G54D17*X157709Y47500D02*X161252D01*
G54D18*X155882Y38130D02*X166118D01*
G54D19*X155882D02*X166118D01*
G54D16*X214000Y47500D02*X215000D01*
G54D11*G36*
X196425Y49075D02*Y45925D01*
X199575D01*
Y49075D01*
X196425D01*
G37*
G54D17*X203709Y47500D02*X207252D01*
G54D18*X201882Y38130D02*X212118D01*
G54D19*X201882D02*X212118D01*
G54D13*X224107Y40757D02*X224893D01*
X224107Y47843D02*X224893D01*
G54D12*X223319Y32661D02*X225681D01*
G54D13*X270107Y40757D02*X270893D01*
X270107Y47843D02*X270893D01*
G54D14*X250244Y19232D02*X255756D01*
G54D15*X250244D02*X255756D01*
G54D16*X76000Y47500D02*X77000D01*
G54D11*G36*
X58425Y49075D02*Y45925D01*
X61575D01*
Y49075D01*
X58425D01*
G37*
G54D17*X65709Y47500D02*X69252D01*
G54D16*X122000D02*X123000D01*
G54D11*G36*
X104425Y49075D02*Y45925D01*
X107575D01*
Y49075D01*
X104425D01*
G37*
G54D17*X111709Y47500D02*X115252D01*
G54D13*X86107Y40757D02*X86893D01*
X86107Y47843D02*X86893D01*
G54D12*X85319Y32661D02*X87681D01*
G54D18*X63882Y38130D02*X74118D01*
G54D19*X63882D02*X74118D01*
G54D18*X17882D02*X28118D01*
G54D19*X17882D02*X28118D01*
G54D14*X20244Y19232D02*X25756D01*
G54D15*X20244D02*X25756D01*
G54D12*X39319Y32661D02*X41681D01*
X39319Y15339D02*X41681D01*
G54D13*X40107Y40757D02*X40893D01*
X40107Y47843D02*X40893D01*
G54D11*G36*
X12425Y49075D02*Y45925D01*
X15575D01*
Y49075D01*
X12425D01*
G37*
G54D17*X19709Y47500D02*X23252D01*
G54D16*X30000D02*X31000D01*
G54D12*X85319Y15339D02*X87681D01*
X131319D02*X133681D01*
G54D13*X132107Y40757D02*X132893D01*
X132107Y47843D02*X132893D01*
G54D12*X131319Y32661D02*X133681D01*
G54D14*X158244Y19232D02*X163756D01*
G54D15*X158244D02*X163756D01*
G54D14*X66244D02*X71756D01*
G54D15*X66244D02*X71756D01*
G54D14*X112244D02*X117756D01*
G54D15*X112244D02*X117756D01*
G54D18*X109882Y38130D02*X120118D01*
G54D19*X109882D02*X120118D01*
G54D16*X260000Y47500D02*X261000D01*
G54D11*G36*
X242425Y49075D02*Y45925D01*
X245575D01*
Y49075D01*
X242425D01*
G37*
G54D17*X249709Y47500D02*X253252D01*
G54D18*X247882Y38130D02*X258118D01*
G54D19*X247882D02*X258118D01*
G54D16*X306000Y47500D02*X307000D01*
G54D11*G36*
X288425Y49075D02*Y45925D01*
X291575D01*
Y49075D01*
X288425D01*
G37*
G54D17*X295709Y47500D02*X299252D01*
G54D18*X293882Y38130D02*X304118D01*
G54D19*X293882D02*X304118D01*
G54D12*X269319Y15339D02*X271681D01*
G54D14*X296244Y19232D02*X301756D01*
G54D15*X296244D02*X301756D01*
G54D12*X269319Y32661D02*X271681D01*
G54D13*X316107Y40757D02*X316893D01*
X316107Y47843D02*X316893D01*
G54D12*X315319Y32661D02*X317681D01*
X315319Y15339D02*X317681D01*
X361319D02*X363681D01*
G54D14*X342244Y19232D02*X347756D01*
G54D15*X342244D02*X347756D01*
G54D13*X362107Y40757D02*X362893D01*
X362107Y47843D02*X362893D01*
G54D12*X361319Y32661D02*X363681D01*
G54D16*X352000Y47500D02*X353000D01*
G54D11*G36*
X334425Y49075D02*Y45925D01*
X337575D01*
Y49075D01*
X334425D01*
G37*
G54D17*X341709Y47500D02*X345252D01*
G54D18*X339882Y38130D02*X350118D01*
G54D19*X339882D02*X350118D01*
G54D16*X398000Y47500D02*X399000D01*
G54D11*G36*
X380425Y49075D02*Y45925D01*
X383575D01*
Y49075D01*
X380425D01*
G37*
G54D17*X387709Y47500D02*X391252D01*
G54D18*X385882Y38130D02*X396118D01*
G54D19*X385882D02*X396118D01*
G54D16*X444000Y47500D02*X445000D01*
G54D11*G36*
X426425Y49075D02*Y45925D01*
X429575D01*
Y49075D01*
X426425D01*
G37*
G54D17*X433709Y47500D02*X437252D01*
G54D18*X431882Y38130D02*X442118D01*
G54D19*X431882D02*X442118D01*
G54D12*X407319Y15339D02*X409681D01*
G54D14*X388244Y19232D02*X393756D01*
G54D15*X388244D02*X393756D01*
G54D13*X408107Y40757D02*X408893D01*
X408107Y47843D02*X408893D01*
G54D12*X407319Y32661D02*X409681D01*
X453319Y15339D02*X455681D01*
G54D14*X434244Y19232D02*X439756D01*
G54D15*X434244D02*X439756D01*
G54D13*X454107Y40757D02*X454893D01*
X454107Y47843D02*X454893D01*
G54D12*X453319Y32661D02*X455681D01*
G54D20*X217000Y32000D03*
X220000Y46000D03*
Y49000D03*
X213500Y32000D03*
X210000D03*
X206000Y28000D03*
X202500D03*
X199000D03*
X263000Y32000D03*
X259500D03*
X256000D03*
X252000Y28000D03*
X248500D03*
X245000D03*
X266000Y46000D03*
Y49000D03*
X302000Y32000D03*
X298000Y28000D03*
X294500D03*
X291000D03*
X309000Y32000D03*
X312000Y46000D03*
Y49000D03*
X305500Y32000D03*
X355000D03*
X351500D03*
X348000D03*
X344000Y28000D03*
X340500D03*
X337000D03*
X358000Y46000D03*
X404000D03*
Y49000D03*
X358000D03*
X401000Y32000D03*
X397500D03*
X394000D03*
X390000Y28000D03*
X386500D03*
X383000D03*
X447000Y32000D03*
X450000Y46000D03*
Y49000D03*
X443500Y32000D03*
X440000D03*
X436000Y28000D03*
X432500D03*
X429000D03*
X79000Y32000D03*
X82000Y46000D03*
Y49000D03*
X75500Y32000D03*
X125000D03*
X121500D03*
X118000D03*
X114000Y28000D03*
X110500D03*
X107000D03*
X15000D03*
X18500D03*
X22000D03*
X26000Y32000D03*
X29500D03*
X36000Y49000D03*
Y46000D03*
X33000Y32000D03*
X72000D03*
X68000Y28000D03*
X64500D03*
X61000D03*
X128000Y46000D03*
X174000D03*
Y49000D03*
X128000D03*
X171000Y32000D03*
X167500D03*
X164000D03*
X160000Y28000D03*
X156500D03*
X153000D03*
G54D21*M02*
