G04 start of page 9 for group -4078 idx -4078 *
G04 Title: (unknown), bottomsilk *
G04 Creator: pcb 20140316 *
G04 CreationDate: Sun 31 Mar 2019 02:26:02 PM GMT UTC *
G04 For: railfan *
G04 Format: Gerber/RS-274X *
G04 PCB-Dimensions (mil): 4700.00 620.00 *
G04 PCB-Coordinate-Origin: lower left *
%MOIN*%
%FSLAX25Y25*%
%LNBOTTOMSILK*%
%ADD46C,0.0066*%
%ADD45C,0.0060*%
%ADD44C,0.0100*%
G54D44*X137500Y11500D02*Y51500D01*
X148500Y11500D02*X183500D01*
X148500Y51500D02*Y11500D01*
X183500Y51500D02*X148500D01*
X102500Y11500D02*X137500D01*
Y51500D02*X102500D01*
X275500D02*X240500D01*
X183500Y11500D02*Y51500D01*
X229500Y11500D02*Y51500D01*
X194500Y11500D02*X229500D01*
X194500Y51500D02*Y11500D01*
X229500Y51500D02*X194500D01*
X240500D02*Y11500D01*
X10500D02*X45500D01*
Y51500D01*
X91500Y11500D02*Y51500D01*
X56500Y11500D02*X91500D01*
X56500Y51500D02*Y11500D01*
X91500Y51500D02*X56500D01*
X45500D02*X10500D01*
Y11500D01*
X102500Y51500D02*Y11500D01*
X275500D02*Y51500D01*
X286500Y11500D02*X321500D01*
X286500Y51500D02*Y11500D01*
X321500Y51500D02*X286500D01*
X240500Y11500D02*X275500D01*
X321500D02*Y51500D01*
X367500Y11500D02*Y51500D01*
X332500Y11500D02*X367500D01*
X332500Y51500D02*Y11500D01*
X367500Y51500D02*X332500D01*
X413500Y11500D02*Y51500D01*
X378500D01*
X459500Y11500D02*Y51500D01*
X424500Y11500D02*X459500D01*
X424500Y51500D02*Y11500D01*
X459500Y51500D02*X424500D01*
X378500Y11500D02*X413500D01*
X378500Y51500D02*Y11500D01*
G54D45*X152000Y48390D02*X151630Y48760D01*
X150520D02*X151630D01*
X150520D02*X150150Y48390D01*
Y47650D02*Y48390D01*
X152000Y45800D02*X150150Y47650D01*
Y45800D02*X152000D01*
X167130D02*Y48760D01*
X166020D02*X165650Y48390D01*
Y46170D02*Y48390D01*
X166020Y45800D02*X165650Y46170D01*
X166020Y45800D02*X167500D01*
X166020Y48760D02*X167500D01*
X163282Y45800D02*X164392D01*
X164762Y46170D02*X164392Y45800D01*
X164762Y46170D02*Y48390D01*
X164392Y48760D01*
X163282D02*X164392D01*
X160914Y45800D02*X162024D01*
X162394Y46170D02*X162024Y45800D01*
X162394Y46170D02*Y48390D01*
X162024Y48760D01*
X160914D02*X162024D01*
X158546D02*X158176Y48390D01*
X158546Y48760D02*X159656D01*
X160026Y48390D02*X159656Y48760D01*
X160026Y47650D02*Y48390D01*
Y47650D02*X159656Y47280D01*
X158546D02*X159656D01*
X158546D02*X158176Y46910D01*
Y46170D02*Y46910D01*
X158546Y45800D02*X158176Y46170D01*
X158546Y45800D02*X159656D01*
X160026Y46170D02*X159656Y45800D01*
X157288D02*Y48390D01*
X156918Y48760D01*
X155808D02*X156918D01*
X155808D02*X155438Y48390D01*
Y45800D02*Y48390D01*
Y47280D02*X157288D01*
G54D46*X169500Y47480D02*X172820D01*
X171160Y45820D02*Y49140D01*
G54D45*X198000Y48390D02*X197630Y48760D01*
X196520D02*X197630D01*
X196520D02*X196150Y48390D01*
Y47650D02*Y48390D01*
X198000Y45800D02*X196150Y47650D01*
Y45800D02*X198000D01*
X213130D02*Y48760D01*
X212020D02*X211650Y48390D01*
Y46170D02*Y48390D01*
X212020Y45800D02*X211650Y46170D01*
X212020Y45800D02*X213500D01*
X212020Y48760D02*X213500D01*
X209282Y45800D02*X210392D01*
X210762Y46170D02*X210392Y45800D01*
X210762Y46170D02*Y48390D01*
X210392Y48760D01*
X209282D02*X210392D01*
X206914Y45800D02*X208024D01*
X208394Y46170D02*X208024Y45800D01*
X208394Y46170D02*Y48390D01*
X208024Y48760D01*
X206914D02*X208024D01*
X204546D02*X204176Y48390D01*
X204546Y48760D02*X205656D01*
X206026Y48390D02*X205656Y48760D01*
X206026Y47650D02*Y48390D01*
Y47650D02*X205656Y47280D01*
X204546D02*X205656D01*
X204546D02*X204176Y46910D01*
Y46170D02*Y46910D01*
X204546Y45800D02*X204176Y46170D01*
X204546Y45800D02*X205656D01*
X206026Y46170D02*X205656Y45800D01*
X203288D02*Y48390D01*
X202918Y48760D01*
X201808D02*X202918D01*
X201808D02*X201438Y48390D01*
Y45800D02*Y48390D01*
Y47280D02*X203288D01*
G54D46*X215500Y47480D02*X218820D01*
X217160Y45820D02*Y49140D01*
G54D45*X244000Y48390D02*X243630Y48760D01*
X242520D02*X243630D01*
X242520D02*X242150Y48390D01*
Y47650D02*Y48390D01*
X244000Y45800D02*X242150Y47650D01*
Y45800D02*X244000D01*
X259130D02*Y48760D01*
X258020D02*X257650Y48390D01*
Y46170D02*Y48390D01*
X258020Y45800D02*X257650Y46170D01*
X258020Y45800D02*X259500D01*
X258020Y48760D02*X259500D01*
X255282Y45800D02*X256392D01*
X256762Y46170D02*X256392Y45800D01*
X256762Y46170D02*Y48390D01*
X256392Y48760D01*
X255282D02*X256392D01*
X252914Y45800D02*X254024D01*
X254394Y46170D02*X254024Y45800D01*
X254394Y46170D02*Y48390D01*
X254024Y48760D01*
X252914D02*X254024D01*
X250546D02*X250176Y48390D01*
X250546Y48760D02*X251656D01*
X252026Y48390D02*X251656Y48760D01*
X252026Y47650D02*Y48390D01*
Y47650D02*X251656Y47280D01*
X250546D02*X251656D01*
X250546D02*X250176Y46910D01*
Y46170D02*Y46910D01*
X250546Y45800D02*X250176Y46170D01*
X250546Y45800D02*X251656D01*
X252026Y46170D02*X251656Y45800D01*
X249288D02*Y48390D01*
X248918Y48760D01*
X247808D02*X248918D01*
X247808D02*X247438Y48390D01*
Y45800D02*Y48390D01*
Y47280D02*X249288D01*
G54D46*X261500Y47480D02*X264820D01*
X263160Y45820D02*Y49140D01*
G54D45*X60000Y48390D02*X59630Y48760D01*
X58520D02*X59630D01*
X58520D02*X58150Y48390D01*
Y47650D02*Y48390D01*
X60000Y45800D02*X58150Y47650D01*
Y45800D02*X60000D01*
X75130D02*Y48760D01*
X74020D02*X73650Y48390D01*
Y46170D02*Y48390D01*
X74020Y45800D02*X73650Y46170D01*
X74020Y45800D02*X75500D01*
X74020Y48760D02*X75500D01*
X71282Y45800D02*X72392D01*
X72762Y46170D02*X72392Y45800D01*
X72762Y46170D02*Y48390D01*
X72392Y48760D01*
X71282D02*X72392D01*
X68914Y45800D02*X70024D01*
X70394Y46170D02*X70024Y45800D01*
X70394Y46170D02*Y48390D01*
X70024Y48760D01*
X68914D02*X70024D01*
X66546D02*X66176Y48390D01*
X66546Y48760D02*X67656D01*
X68026Y48390D02*X67656Y48760D01*
X68026Y47650D02*Y48390D01*
Y47650D02*X67656Y47280D01*
X66546D02*X67656D01*
X66546D02*X66176Y46910D01*
Y46170D02*Y46910D01*
X66546Y45800D02*X66176Y46170D01*
X66546Y45800D02*X67656D01*
X68026Y46170D02*X67656Y45800D01*
X65288D02*Y48390D01*
X64918Y48760D01*
X63808D02*X64918D01*
X63808D02*X63438Y48390D01*
Y45800D02*Y48390D01*
Y47280D02*X65288D01*
G54D46*X77500Y47480D02*X80820D01*
X79160Y45820D02*Y49140D01*
G54D45*X106000Y48390D02*X105630Y48760D01*
X104520D02*X105630D01*
X104520D02*X104150Y48390D01*
Y47650D02*Y48390D01*
X106000Y45800D02*X104150Y47650D01*
Y45800D02*X106000D01*
G54D46*X31500Y47480D02*X34820D01*
X33160Y45820D02*Y49140D01*
G54D45*X29130Y45800D02*Y48760D01*
X28020D02*X27650Y48390D01*
Y46170D02*Y48390D01*
X28020Y45800D02*X27650Y46170D01*
X28020Y45800D02*X29500D01*
X28020Y48760D02*X29500D01*
X25282Y45800D02*X26392D01*
X26762Y46170D02*X26392Y45800D01*
X26762Y46170D02*Y48390D01*
X26392Y48760D01*
X25282D02*X26392D01*
X22914Y45800D02*X24024D01*
X24394Y46170D02*X24024Y45800D01*
X24394Y46170D02*Y48390D01*
X24024Y48760D01*
X22914D02*X24024D01*
X20546D02*X20176Y48390D01*
X20546Y48760D02*X21656D01*
X22026Y48390D02*X21656Y48760D01*
X22026Y47650D02*Y48390D01*
Y47650D02*X21656Y47280D01*
X20546D02*X21656D01*
X20546D02*X20176Y46910D01*
Y46170D02*Y46910D01*
X20546Y45800D02*X20176Y46170D01*
X20546Y45800D02*X21656D01*
X22026Y46170D02*X21656Y45800D01*
X19288D02*Y48390D01*
X18918Y48760D01*
X17808D02*X18918D01*
X17808D02*X17438Y48390D01*
Y45800D02*Y48390D01*
Y47280D02*X19288D01*
X14000Y48390D02*X13630Y48760D01*
X12520D02*X13630D01*
X12520D02*X12150Y48390D01*
Y47650D02*Y48390D01*
X14000Y45800D02*X12150Y47650D01*
Y45800D02*X14000D01*
X121130D02*Y48760D01*
X120020D02*X119650Y48390D01*
Y46170D02*Y48390D01*
X120020Y45800D02*X119650Y46170D01*
X120020Y45800D02*X121500D01*
X120020Y48760D02*X121500D01*
X117282Y45800D02*X118392D01*
X118762Y46170D02*X118392Y45800D01*
X118762Y46170D02*Y48390D01*
X118392Y48760D01*
X117282D02*X118392D01*
X114914Y45800D02*X116024D01*
X116394Y46170D02*X116024Y45800D01*
X116394Y46170D02*Y48390D01*
X116024Y48760D01*
X114914D02*X116024D01*
X112546D02*X112176Y48390D01*
X112546Y48760D02*X113656D01*
X114026Y48390D02*X113656Y48760D01*
X114026Y47650D02*Y48390D01*
Y47650D02*X113656Y47280D01*
X112546D02*X113656D01*
X112546D02*X112176Y46910D01*
Y46170D02*Y46910D01*
X112546Y45800D02*X112176Y46170D01*
X112546Y45800D02*X113656D01*
X114026Y46170D02*X113656Y45800D01*
X111288D02*Y48390D01*
X110918Y48760D01*
X109808D02*X110918D01*
X109808D02*X109438Y48390D01*
Y45800D02*Y48390D01*
Y47280D02*X111288D01*
G54D46*X123500Y47480D02*X126820D01*
X125160Y45820D02*Y49140D01*
G54D45*X290000Y48390D02*X289630Y48760D01*
X288520D02*X289630D01*
X288520D02*X288150Y48390D01*
Y47650D02*Y48390D01*
X290000Y45800D02*X288150Y47650D01*
Y45800D02*X290000D01*
X305130D02*Y48760D01*
X304020D02*X303650Y48390D01*
Y46170D02*Y48390D01*
X304020Y45800D02*X303650Y46170D01*
X304020Y45800D02*X305500D01*
X304020Y48760D02*X305500D01*
X301282Y45800D02*X302392D01*
X302762Y46170D02*X302392Y45800D01*
X302762Y46170D02*Y48390D01*
X302392Y48760D01*
X301282D02*X302392D01*
X298914Y45800D02*X300024D01*
X300394Y46170D02*X300024Y45800D01*
X300394Y46170D02*Y48390D01*
X300024Y48760D01*
X298914D02*X300024D01*
X296546D02*X296176Y48390D01*
X296546Y48760D02*X297656D01*
X298026Y48390D02*X297656Y48760D01*
X298026Y47650D02*Y48390D01*
Y47650D02*X297656Y47280D01*
X296546D02*X297656D01*
X296546D02*X296176Y46910D01*
Y46170D02*Y46910D01*
X296546Y45800D02*X296176Y46170D01*
X296546Y45800D02*X297656D01*
X298026Y46170D02*X297656Y45800D01*
X295288D02*Y48390D01*
X294918Y48760D01*
X293808D02*X294918D01*
X293808D02*X293438Y48390D01*
Y45800D02*Y48390D01*
Y47280D02*X295288D01*
G54D46*X307500Y47480D02*X310820D01*
X309160Y45820D02*Y49140D01*
G54D45*X336000Y48390D02*X335630Y48760D01*
X334520D02*X335630D01*
X334520D02*X334150Y48390D01*
Y47650D02*Y48390D01*
X336000Y45800D02*X334150Y47650D01*
Y45800D02*X336000D01*
X351130D02*Y48760D01*
X350020D02*X349650Y48390D01*
Y46170D02*Y48390D01*
X350020Y45800D02*X349650Y46170D01*
X350020Y45800D02*X351500D01*
X350020Y48760D02*X351500D01*
X347282Y45800D02*X348392D01*
X348762Y46170D02*X348392Y45800D01*
X348762Y46170D02*Y48390D01*
X348392Y48760D01*
X347282D02*X348392D01*
X344914Y45800D02*X346024D01*
X346394Y46170D02*X346024Y45800D01*
X346394Y46170D02*Y48390D01*
X346024Y48760D01*
X344914D02*X346024D01*
X342546D02*X342176Y48390D01*
X342546Y48760D02*X343656D01*
X344026Y48390D02*X343656Y48760D01*
X344026Y47650D02*Y48390D01*
Y47650D02*X343656Y47280D01*
X342546D02*X343656D01*
X342546D02*X342176Y46910D01*
Y46170D02*Y46910D01*
X342546Y45800D02*X342176Y46170D01*
X342546Y45800D02*X343656D01*
X344026Y46170D02*X343656Y45800D01*
X341288D02*Y48390D01*
X340918Y48760D01*
X339808D02*X340918D01*
X339808D02*X339438Y48390D01*
Y45800D02*Y48390D01*
Y47280D02*X341288D01*
G54D46*X353500Y47480D02*X356820D01*
X355160Y45820D02*Y49140D01*
G54D45*X382000Y48390D02*X381630Y48760D01*
X380520D02*X381630D01*
X380520D02*X380150Y48390D01*
Y47650D02*Y48390D01*
X382000Y45800D02*X380150Y47650D01*
Y45800D02*X382000D01*
X397130D02*Y48760D01*
X396020D02*X395650Y48390D01*
Y46170D02*Y48390D01*
X396020Y45800D02*X395650Y46170D01*
X396020Y45800D02*X397500D01*
X396020Y48760D02*X397500D01*
X393282Y45800D02*X394392D01*
X394762Y46170D02*X394392Y45800D01*
X394762Y46170D02*Y48390D01*
X394392Y48760D01*
X393282D02*X394392D01*
X390914Y45800D02*X392024D01*
X392394Y46170D02*X392024Y45800D01*
X392394Y46170D02*Y48390D01*
X392024Y48760D01*
X390914D02*X392024D01*
X388546D02*X388176Y48390D01*
X388546Y48760D02*X389656D01*
X390026Y48390D02*X389656Y48760D01*
X390026Y47650D02*Y48390D01*
Y47650D02*X389656Y47280D01*
X388546D02*X389656D01*
X388546D02*X388176Y46910D01*
Y46170D02*Y46910D01*
X388546Y45800D02*X388176Y46170D01*
X388546Y45800D02*X389656D01*
X390026Y46170D02*X389656Y45800D01*
X387288D02*Y48390D01*
X386918Y48760D01*
X385808D02*X386918D01*
X385808D02*X385438Y48390D01*
Y45800D02*Y48390D01*
Y47280D02*X387288D01*
G54D46*X399500Y47480D02*X402820D01*
X401160Y45820D02*Y49140D01*
G54D45*X428000Y48390D02*X427630Y48760D01*
X426520D02*X427630D01*
X426520D02*X426150Y48390D01*
Y47650D02*Y48390D01*
X428000Y45800D02*X426150Y47650D01*
Y45800D02*X428000D01*
X443130D02*Y48760D01*
X442020D02*X441650Y48390D01*
Y46170D02*Y48390D01*
X442020Y45800D02*X441650Y46170D01*
X442020Y45800D02*X443500D01*
X442020Y48760D02*X443500D01*
X439282Y45800D02*X440392D01*
X440762Y46170D02*X440392Y45800D01*
X440762Y46170D02*Y48390D01*
X440392Y48760D01*
X439282D02*X440392D01*
X436914Y45800D02*X438024D01*
X438394Y46170D02*X438024Y45800D01*
X438394Y46170D02*Y48390D01*
X438024Y48760D01*
X436914D02*X438024D01*
X434546D02*X434176Y48390D01*
X434546Y48760D02*X435656D01*
X436026Y48390D02*X435656Y48760D01*
X436026Y47650D02*Y48390D01*
Y47650D02*X435656Y47280D01*
X434546D02*X435656D01*
X434546D02*X434176Y46910D01*
Y46170D02*Y46910D01*
X434546Y45800D02*X434176Y46170D01*
X434546Y45800D02*X435656D01*
X436026Y46170D02*X435656Y45800D01*
X433288D02*Y48390D01*
X432918Y48760D01*
X431808D02*X432918D01*
X431808D02*X431438Y48390D01*
Y45800D02*Y48390D01*
Y47280D02*X433288D01*
G54D46*X445500Y47480D02*X448820D01*
X447160Y45820D02*Y49140D01*
G54D44*X194598Y41870D02*Y13130D01*
X219402Y41870D02*Y13130D01*
X240598Y41870D02*Y13130D01*
X265402Y41870D02*Y13130D01*
X286598Y41870D02*Y13130D01*
X311402Y41870D02*Y13130D01*
X332598Y41870D02*Y13130D01*
X357402Y41870D02*Y13130D01*
X378598Y41870D02*Y13130D01*
X403402Y41870D02*Y13130D01*
X424598Y41870D02*Y13130D01*
X449402Y41870D02*Y13130D01*
X102598Y41870D02*Y13130D01*
X127402Y41870D02*Y13130D01*
X10598Y41870D02*Y13130D01*
X35402Y41870D02*Y13130D01*
X56598Y41870D02*Y13130D01*
X81402Y41870D02*Y13130D01*
X148598Y41870D02*Y13130D01*
X173402Y41870D02*Y13130D01*
M02*
