G04 start of page 7 for group -4063 idx -4063 *
G04 Title: (unknown), componentmask *
G04 Creator: pcb 20140316 *
G04 CreationDate: Tue 26 Feb 2019 04:24:45 AM GMT UTC *
G04 For: railfan *
G04 Format: Gerber/RS-274X *
G04 PCB-Dimensions (mil): 4700.00 620.00 *
G04 PCB-Coordinate-Origin: lower left *
%MOIN*%
%FSLAX25Y25*%
%LNTOPMASK*%
%ADD35R,0.0493X0.0493*%
%ADD34C,0.0001*%
%ADD33R,0.0926X0.0926*%
%ADD32R,0.1399X0.1399*%
%ADD31R,0.0572X0.0572*%
%ADD30R,0.0611X0.0611*%
G54D30*X177319Y32661D02*X179681D01*
X177319Y15339D02*X179681D01*
G54D31*X178107Y40757D02*X178893D01*
X178107Y47843D02*X178893D01*
G54D32*X204244Y19232D02*X209756D01*
G54D33*X201882Y38130D02*X212118D01*
G54D34*G36*
X211125Y49375D02*Y45625D01*
X214875D01*
Y49375D01*
X211125D01*
G37*
G54D35*X203748Y47500D02*X207291D01*
G54D30*X223319Y32661D02*X225681D01*
G54D31*X224107Y40757D02*X224893D01*
X224107Y47843D02*X224893D01*
G54D33*X247882Y38130D02*X258118D01*
G54D34*G36*
X257125Y49375D02*Y45625D01*
X260875D01*
Y49375D01*
X257125D01*
G37*
G54D35*X249748Y47500D02*X253291D01*
G54D30*X223319Y15339D02*X225681D01*
G54D32*X250244Y19232D02*X255756D01*
G54D30*X269319Y32661D02*X271681D01*
G54D31*X270107Y40757D02*X270893D01*
X270107Y47843D02*X270893D01*
G54D30*X269319Y15339D02*X271681D01*
G54D32*X296244Y19232D02*X301756D01*
G54D33*X293882Y38130D02*X304118D01*
G54D30*X315319Y32661D02*X317681D01*
G54D31*X316107Y47843D02*X316893D01*
G54D34*G36*
X303125Y49375D02*Y45625D01*
X306875D01*
Y49375D01*
X303125D01*
G37*
G54D35*X295748Y47500D02*X299291D01*
G54D33*X63882Y38130D02*X74118D01*
G54D34*G36*
X73125Y49375D02*Y45625D01*
X76875D01*
Y49375D01*
X73125D01*
G37*
G54D35*X65748Y47500D02*X69291D01*
G54D32*X66244Y19232D02*X71756D01*
G54D30*X85319Y32661D02*X87681D01*
X85319Y15339D02*X87681D01*
X39319Y32661D02*X41681D01*
X39319Y15339D02*X41681D01*
G54D31*X40107Y40757D02*X40893D01*
G54D33*X17882Y38130D02*X28118D01*
G54D32*X20244Y19232D02*X25756D01*
G54D31*X40107Y47843D02*X40893D01*
G54D34*G36*
X27125Y49375D02*Y45625D01*
X30875D01*
Y49375D01*
X27125D01*
G37*
G54D35*X19748Y47500D02*X23291D01*
G54D31*X86107Y40757D02*X86893D01*
G54D33*X109882Y38130D02*X120118D01*
G54D31*X86107Y47843D02*X86893D01*
X132107D02*X132893D01*
G54D34*G36*
X119125Y49375D02*Y45625D01*
X122875D01*
Y49375D01*
X119125D01*
G37*
G54D35*X111748Y47500D02*X115291D01*
G54D32*X112244Y19232D02*X117756D01*
G54D30*X131319Y15339D02*X133681D01*
X131319Y32661D02*X133681D01*
G54D31*X132107Y40757D02*X132893D01*
G54D32*X158244Y19232D02*X163756D01*
G54D33*X155882Y38130D02*X166118D01*
G54D34*G36*
X165125Y49375D02*Y45625D01*
X168875D01*
Y49375D01*
X165125D01*
G37*
G54D35*X157748Y47500D02*X161291D01*
G54D30*X315319Y15339D02*X317681D01*
G54D32*X342244Y19232D02*X347756D01*
G54D31*X316107Y40757D02*X316893D01*
G54D35*X341748Y47500D02*X345291D01*
G54D33*X339882Y38130D02*X350118D01*
G54D30*X361319Y32661D02*X363681D01*
G54D31*X362107Y40757D02*X362893D01*
X362107Y47843D02*X362893D01*
G54D34*G36*
X349125Y49375D02*Y45625D01*
X352875D01*
Y49375D01*
X349125D01*
G37*
G36*
X395125D02*Y45625D01*
X398875D01*
Y49375D01*
X395125D01*
G37*
G54D35*X387748Y47500D02*X391291D01*
G54D30*X361319Y15339D02*X363681D01*
G54D32*X388244Y19232D02*X393756D01*
G54D30*X407319Y15339D02*X409681D01*
X407319Y32661D02*X409681D01*
G54D31*X408107Y40757D02*X408893D01*
X408107Y47843D02*X408893D01*
G54D33*X385882Y38130D02*X396118D01*
X431882D02*X442118D01*
G54D32*X434244Y19232D02*X439756D01*
G54D30*X453319Y32661D02*X455681D01*
X453319Y15339D02*X455681D01*
G54D31*X454107Y40757D02*X454893D01*
X454107Y47843D02*X454893D01*
G54D34*G36*
X441125Y49375D02*Y45625D01*
X444875D01*
Y49375D01*
X441125D01*
G37*
G54D35*X433748Y47500D02*X437291D01*
M02*
