G04 start of page 8 for group -4062 idx -4062 *
G04 Title: (unknown), soldermask *
G04 Creator: pcb 20140316 *
G04 CreationDate: Tue 26 Feb 2019 04:24:45 AM GMT UTC *
G04 For: railfan *
G04 Format: Gerber/RS-274X *
G04 PCB-Dimensions (mil): 4700.00 620.00 *
G04 PCB-Coordinate-Origin: lower left *
%MOIN*%
%FSLAX25Y25*%
%LNBOTTOMMASK*%
%ADD38R,0.0926X0.0926*%
%ADD37R,0.1399X0.1399*%
%ADD36R,0.0880X0.0880*%
G54D36*X178500Y46500D02*Y37000D01*
Y26000D02*Y16500D01*
G54D37*X204244Y19232D02*X209756D01*
G54D38*X201882Y38130D02*X212118D01*
G54D36*X224500Y46500D02*Y37000D01*
G54D38*X247882Y38130D02*X258118D01*
G54D36*X224500Y26000D02*Y16500D01*
G54D37*X250244Y19232D02*X255756D01*
G54D36*X270500Y46500D02*Y37000D01*
Y26000D02*Y16500D01*
G54D37*X296244Y19232D02*X301756D01*
G54D38*X293882Y38130D02*X304118D01*
G54D36*X40500Y46500D02*Y37000D01*
G54D38*X63882Y38130D02*X74118D01*
G54D37*X66244Y19232D02*X71756D01*
G54D36*X86500Y46500D02*Y37000D01*
X40500Y26000D02*Y16500D01*
G54D38*X17882Y38130D02*X28118D01*
G54D37*X20244Y19232D02*X25756D01*
G54D38*X109882Y38130D02*X120118D01*
G54D36*X86500Y26000D02*Y16500D01*
G54D37*X112244Y19232D02*X117756D01*
G54D36*X132500Y26000D02*Y16500D01*
Y46500D02*Y37000D01*
G54D37*X158244Y19232D02*X163756D01*
G54D38*X155882Y38130D02*X166118D01*
G54D36*X316500Y26000D02*Y16500D01*
G54D37*X342244Y19232D02*X347756D01*
G54D36*X316500Y46500D02*Y37000D01*
G54D38*X339882Y38130D02*X350118D01*
G54D36*X362500Y46500D02*Y37000D01*
Y26000D02*Y16500D01*
G54D37*X388244Y19232D02*X393756D01*
G54D36*X408500Y26000D02*Y16500D01*
Y46500D02*Y37000D01*
G54D38*X385882Y38130D02*X396118D01*
X431882D02*X442118D01*
G54D37*X434244Y19232D02*X439756D01*
G54D36*X454500Y46500D02*Y37000D01*
Y26000D02*Y16500D01*
M02*
