M48
INCH
T29C0.031
%
T29
X004700Y003650
X004700Y003150
X004700Y002650
X005500Y003650
X005500Y003150
X005500Y002650
X009300Y003650
X009300Y003150
X009300Y002650
X010100Y003650
X010100Y003150
X010100Y002650
X013900Y003650
X013900Y003150
X013900Y002650
X014700Y003650
X014700Y003150
X014700Y002650
X018500Y003650
X018500Y003150
X018500Y002650
X019300Y003650
X019300Y003150
X019300Y002650
X023100Y003650
X023100Y003150
X023100Y002650
X023900Y003650
X023900Y003150
X023900Y002650
X027700Y003650
X027700Y003150
X027700Y002650
X028500Y003650
X028500Y003150
X028500Y002650
X032300Y003650
X032300Y003150
X032300Y002650
X033100Y003650
X033100Y003150
X033100Y002650
X036900Y003650
X036900Y003150
X036900Y002650
X037700Y003650
X037700Y003150
X037700Y002650
X041500Y003650
X041500Y003150
X041500Y002650
X042300Y003650
X042300Y003150
X042300Y002650
M30
