G04 start of page 11 for group -4015 idx -4015 *
G04 Title: (unknown), toppaste *
G04 Creator: pcb 20140316 *
G04 CreationDate: Tue 26 Feb 2019 04:24:45 AM GMT UTC *
G04 For: railfan *
G04 Format: Gerber/RS-274X *
G04 PCB-Dimensions (mil): 4700.00 620.00 *
G04 PCB-Coordinate-Origin: lower left *
%MOIN*%
%FSLAX25Y25*%
%LNTOPPASTE*%
%ADD49R,0.0433X0.0433*%
%ADD48C,0.0001*%
%ADD47R,0.0512X0.0512*%
%ADD46R,0.0551X0.0551*%
%ADD45R,0.1339X0.1339*%
%ADD44R,0.0866X0.0866*%
G54D44*X17882Y38130D02*X28118D01*
G54D45*X20244Y19232D02*X25756D01*
G54D46*X39319Y32661D02*X41681D01*
X39319Y15339D02*X41681D01*
G54D47*X40107Y40757D02*X40893D01*
X40107Y47843D02*X40893D01*
G54D48*G36*
X27425Y49075D02*Y45925D01*
X30575D01*
Y49075D01*
X27425D01*
G37*
G54D49*X19748Y47500D02*X23291D01*
G54D44*X63882Y38130D02*X74118D01*
G54D45*X66244Y19232D02*X71756D01*
G54D46*X85319Y32661D02*X87681D01*
X85319Y15339D02*X87681D01*
G54D47*X86107Y40757D02*X86893D01*
X86107Y47843D02*X86893D01*
G54D48*G36*
X73425Y49075D02*Y45925D01*
X76575D01*
Y49075D01*
X73425D01*
G37*
G54D49*X65748Y47500D02*X69291D01*
G54D44*X109882Y38130D02*X120118D01*
G54D45*X112244Y19232D02*X117756D01*
G54D46*X131319Y32661D02*X133681D01*
X131319Y15339D02*X133681D01*
G54D47*X132107Y40757D02*X132893D01*
X132107Y47843D02*X132893D01*
G54D48*G36*
X119425Y49075D02*Y45925D01*
X122575D01*
Y49075D01*
X119425D01*
G37*
G54D49*X111748Y47500D02*X115291D01*
G54D44*X155882Y38130D02*X166118D01*
G54D45*X158244Y19232D02*X163756D01*
G54D46*X177319Y32661D02*X179681D01*
X177319Y15339D02*X179681D01*
G54D47*X178107Y40757D02*X178893D01*
X178107Y47843D02*X178893D01*
G54D48*G36*
X165425Y49075D02*Y45925D01*
X168575D01*
Y49075D01*
X165425D01*
G37*
G54D49*X157748Y47500D02*X161291D01*
G54D44*X201882Y38130D02*X212118D01*
G54D45*X204244Y19232D02*X209756D01*
G54D46*X223319Y32661D02*X225681D01*
X223319Y15339D02*X225681D01*
G54D47*X224107Y40757D02*X224893D01*
X224107Y47843D02*X224893D01*
G54D48*G36*
X211425Y49075D02*Y45925D01*
X214575D01*
Y49075D01*
X211425D01*
G37*
G54D49*X203748Y47500D02*X207291D01*
G54D44*X247882Y38130D02*X258118D01*
G54D45*X250244Y19232D02*X255756D01*
G54D46*X269319Y32661D02*X271681D01*
X269319Y15339D02*X271681D01*
G54D47*X270107Y40757D02*X270893D01*
X270107Y47843D02*X270893D01*
G54D48*G36*
X257425Y49075D02*Y45925D01*
X260575D01*
Y49075D01*
X257425D01*
G37*
G54D49*X249748Y47500D02*X253291D01*
G54D44*X293882Y38130D02*X304118D01*
G54D45*X296244Y19232D02*X301756D01*
G54D46*X315319Y32661D02*X317681D01*
X315319Y15339D02*X317681D01*
G54D47*X316107Y40757D02*X316893D01*
X316107Y47843D02*X316893D01*
G54D48*G36*
X303425Y49075D02*Y45925D01*
X306575D01*
Y49075D01*
X303425D01*
G37*
G54D49*X295748Y47500D02*X299291D01*
G54D44*X339882Y38130D02*X350118D01*
G54D45*X342244Y19232D02*X347756D01*
G54D46*X361319Y32661D02*X363681D01*
X361319Y15339D02*X363681D01*
G54D47*X362107Y40757D02*X362893D01*
X362107Y47843D02*X362893D01*
G54D48*G36*
X349425Y49075D02*Y45925D01*
X352575D01*
Y49075D01*
X349425D01*
G37*
G54D49*X341748Y47500D02*X345291D01*
G54D44*X385882Y38130D02*X396118D01*
G54D45*X388244Y19232D02*X393756D01*
G54D46*X407319Y32661D02*X409681D01*
X407319Y15339D02*X409681D01*
G54D47*X408107Y40757D02*X408893D01*
X408107Y47843D02*X408893D01*
G54D48*G36*
X395425Y49075D02*Y45925D01*
X398575D01*
Y49075D01*
X395425D01*
G37*
G54D49*X387748Y47500D02*X391291D01*
G54D44*X431882Y38130D02*X442118D01*
G54D45*X434244Y19232D02*X439756D01*
G54D46*X453319Y32661D02*X455681D01*
X453319Y15339D02*X455681D01*
G54D47*X454107Y40757D02*X454893D01*
X454107Y47843D02*X454893D01*
G54D48*G36*
X441425Y49075D02*Y45925D01*
X444575D01*
Y49075D01*
X441425D01*
G37*
G54D49*X433748Y47500D02*X437291D01*
M02*
