G04 start of page 3 for group 1 idx 1 *
G04 Title: (unknown), solder *
G04 Creator: pcb 20140316 *
G04 CreationDate: Tue 26 Feb 2019 04:24:45 AM GMT UTC *
G04 For: railfan *
G04 Format: Gerber/RS-274X *
G04 PCB-Dimensions (mil): 4700.00 620.00 *
G04 PCB-Coordinate-Origin: lower left *
%MOIN*%
%FSLAX25Y25*%
%LNBOTTOM*%
%ADD26C,0.0310*%
%ADD25C,0.0120*%
%ADD24C,0.0280*%
%ADD23R,0.0866X0.0866*%
%ADD22R,0.1339X0.1339*%
%ADD21R,0.0800X0.0800*%
%ADD20C,0.0001*%
G54D20*G36*
X105000Y26000D02*X136500D01*
Y12500D01*
X105000D01*
Y26000D01*
G37*
G36*
X151000D02*X182500D01*
Y12500D01*
X151000D01*
Y26000D01*
G37*
G36*
X197000D02*X228500D01*
Y12500D01*
X197000D01*
Y26000D01*
G37*
G36*
X243000D02*X274500D01*
Y12500D01*
X243000D01*
Y26000D01*
G37*
G36*
X131000Y50500D02*Y44500D01*
X105500D01*
Y50500D01*
X131000D01*
G37*
G36*
X177000D02*Y44500D01*
X151500D01*
Y50500D01*
X177000D01*
G37*
G36*
X223000D02*Y44500D01*
X197500D01*
Y50500D01*
X223000D01*
G37*
G36*
X269000D02*Y44500D01*
X243500D01*
Y50500D01*
X269000D01*
G37*
G36*
X361000D02*Y44500D01*
X335500D01*
Y50500D01*
X361000D01*
G37*
G36*
X407000D02*Y44500D01*
X381500D01*
Y50500D01*
X407000D01*
G37*
G36*
X105000Y25000D02*Y30000D01*
X115000D01*
X120000Y25000D01*
X105000D01*
G37*
G36*
X151000D02*Y30000D01*
X161000D01*
X166000Y25000D01*
X151000D01*
G37*
G36*
X197000D02*Y30000D01*
X207000D01*
X212000Y25000D01*
X197000D01*
G37*
G36*
X243000D02*Y30000D01*
X253000D01*
X258000Y25000D01*
X243000D01*
G37*
G36*
X197000Y43500D02*X219000D01*
Y31500D01*
X197000D01*
Y43500D01*
G37*
G36*
X219000Y32500D02*Y29500D01*
X209500D01*
X206500Y32500D01*
X219000D01*
G37*
G36*
X243000Y43500D02*X265000D01*
Y31500D01*
X243000D01*
Y43500D01*
G37*
G36*
X265000Y32500D02*Y29500D01*
X255500D01*
X252500Y32500D01*
X265000D01*
G37*
G36*
X59000Y26000D02*X90500D01*
Y12500D01*
X59000D01*
Y26000D01*
G37*
G36*
X85000Y50500D02*Y44500D01*
X59500D01*
Y50500D01*
X85000D01*
G37*
G36*
X59000Y25000D02*Y30000D01*
X69000D01*
X74000Y25000D01*
X59000D01*
G37*
G36*
Y43500D02*X81000D01*
Y31500D01*
X59000D01*
Y43500D01*
G37*
G36*
X81000Y32500D02*Y29500D01*
X71500D01*
X68500Y32500D01*
X81000D01*
G37*
G36*
X13000Y26000D02*X44500D01*
Y12500D01*
X13000D01*
Y26000D01*
G37*
G36*
X39000Y50500D02*Y44500D01*
X13500D01*
Y50500D01*
X39000D01*
G37*
G36*
X13000Y25000D02*Y30000D01*
X23000D01*
X28000Y25000D01*
X13000D01*
G37*
G36*
Y43500D02*X35000D01*
Y31500D01*
X13000D01*
Y43500D01*
G37*
G36*
X35000Y32500D02*Y29500D01*
X25500D01*
X22500Y32500D01*
X35000D01*
G37*
G36*
X105000Y43500D02*X127000D01*
Y31500D01*
X105000D01*
Y43500D01*
G37*
G36*
X127000Y32500D02*Y29500D01*
X117500D01*
X114500Y32500D01*
X127000D01*
G37*
G36*
X151000Y43500D02*X173000D01*
Y31500D01*
X151000D01*
Y43500D01*
G37*
G36*
X173000Y32500D02*Y29500D01*
X163500D01*
X160500Y32500D01*
X173000D01*
G37*
G36*
X289000Y26000D02*X320500D01*
Y12500D01*
X289000D01*
Y26000D01*
G37*
G36*
Y25000D02*Y30000D01*
X299000D01*
X304000Y25000D01*
X289000D01*
G37*
G36*
X335000Y26000D02*X366500D01*
Y12500D01*
X335000D01*
Y26000D01*
G37*
G36*
Y25000D02*Y30000D01*
X345000D01*
X350000Y25000D01*
X335000D01*
G37*
G36*
X381000Y26000D02*X412500D01*
Y12500D01*
X381000D01*
Y26000D01*
G37*
G36*
Y25000D02*Y30000D01*
X391000D01*
X396000Y25000D01*
X381000D01*
G37*
G36*
X315000Y50500D02*Y44500D01*
X289500D01*
Y50500D01*
X315000D01*
G37*
G36*
X289000Y43500D02*X311000D01*
Y31500D01*
X289000D01*
Y43500D01*
G37*
G36*
X311000Y32500D02*Y29500D01*
X301500D01*
X298500Y32500D01*
X311000D01*
G37*
G36*
X335000Y43500D02*X357000D01*
Y31500D01*
X335000D01*
Y43500D01*
G37*
G36*
X357000Y32500D02*Y29500D01*
X347500D01*
X344500Y32500D01*
X357000D01*
G37*
G36*
X381000Y43500D02*X403000D01*
Y31500D01*
X381000D01*
Y43500D01*
G37*
G36*
X403000Y32500D02*Y29500D01*
X393500D01*
X390500Y32500D01*
X403000D01*
G37*
G36*
X427000Y26000D02*X458500D01*
Y12500D01*
X427000D01*
Y26000D01*
G37*
G36*
X453000Y50500D02*Y44500D01*
X427500D01*
Y50500D01*
X453000D01*
G37*
G36*
X427000Y25000D02*Y30000D01*
X437000D01*
X442000Y25000D01*
X427000D01*
G37*
G36*
Y43500D02*X449000D01*
Y31500D01*
X427000D01*
Y43500D01*
G37*
G36*
X449000Y32500D02*Y29500D01*
X439500D01*
X436500Y32500D01*
X449000D01*
G37*
G54D21*X178500Y46500D02*Y37000D01*
Y26000D02*Y16500D01*
G54D22*X204244Y19232D02*X209756D01*
G54D23*X201882Y38130D02*X212118D01*
G54D21*X224500Y46500D02*Y37000D01*
G54D23*X247882Y38130D02*X258118D01*
G54D21*X224500Y26000D02*Y16500D01*
G54D22*X250244Y19232D02*X255756D01*
G54D21*X270500Y46500D02*Y37000D01*
Y26000D02*Y16500D01*
G54D22*X296244Y19232D02*X301756D01*
G54D23*X293882Y38130D02*X304118D01*
G54D21*X40500Y46500D02*Y37000D01*
G54D23*X63882Y38130D02*X74118D01*
G54D22*X66244Y19232D02*X71756D01*
G54D21*X86500Y46500D02*Y37000D01*
X40500Y26000D02*Y16500D01*
G54D23*X17882Y38130D02*X28118D01*
G54D22*X20244Y19232D02*X25756D01*
G54D23*X109882Y38130D02*X120118D01*
G54D21*X86500Y26000D02*Y16500D01*
G54D22*X112244Y19232D02*X117756D01*
G54D21*X132500Y26000D02*Y16500D01*
Y46500D02*Y37000D01*
G54D22*X158244Y19232D02*X163756D01*
G54D23*X155882Y38130D02*X166118D01*
G54D21*X316500Y26000D02*Y16500D01*
G54D22*X342244Y19232D02*X347756D01*
G54D21*X316500Y46500D02*Y37000D01*
G54D23*X339882Y38130D02*X350118D01*
G54D21*X362500Y46500D02*Y37000D01*
Y26000D02*Y16500D01*
G54D22*X388244Y19232D02*X393756D01*
G54D21*X408500Y26000D02*Y16500D01*
Y46500D02*Y37000D01*
G54D23*X385882Y38130D02*X396118D01*
X431882D02*X442118D01*
G54D22*X434244Y19232D02*X439756D01*
G54D21*X454500Y46500D02*Y37000D01*
Y26000D02*Y16500D01*
G54D24*X173500Y49000D03*
X199500D03*
Y46000D03*
X173500D03*
X153500Y49000D03*
Y46000D03*
X153000Y28000D03*
X156500D03*
X160000D03*
X164000Y32000D03*
X167500D03*
X171000D03*
X199000Y28000D03*
X202500D03*
X206000D03*
X210000Y32000D03*
X213500D03*
X217000D03*
X81500Y49000D03*
Y46000D03*
X61500Y49000D03*
Y46000D03*
X61000Y28000D03*
X64500D03*
X68000D03*
X72000Y32000D03*
X75500D03*
X79000D03*
X15500Y49000D03*
Y46000D03*
X15000Y28000D03*
X18500D03*
X22000D03*
X35500Y49000D03*
Y46000D03*
X26000Y32000D03*
X29500D03*
X33000D03*
X127500Y49000D03*
Y46000D03*
X107500Y49000D03*
Y46000D03*
X118000Y32000D03*
X121500D03*
X125000D03*
X107000Y28000D03*
X110500D03*
X114000D03*
X219500Y49000D03*
Y46000D03*
X265500Y49000D03*
Y46000D03*
X245500Y49000D03*
Y46000D03*
X311500Y49000D03*
X337500D03*
Y46000D03*
X311500D03*
X291500Y49000D03*
Y46000D03*
X248500Y28000D03*
X256000Y32000D03*
X259500D03*
X263000D03*
X245000Y28000D03*
X252000D03*
X291000D03*
X294500D03*
X298000D03*
X302000Y32000D03*
X305500D03*
X309000D03*
X337000Y28000D03*
X340500D03*
X344000D03*
X348000Y32000D03*
X351500D03*
X355000D03*
X383000Y28000D03*
X386500D03*
X390000D03*
X394000Y32000D03*
X397500D03*
X401000D03*
X357500Y49000D03*
Y46000D03*
X383500Y49000D03*
Y46000D03*
X403500Y49000D03*
Y46000D03*
X449500Y49000D03*
Y46000D03*
X429500Y49000D03*
Y46000D03*
X429000Y28000D03*
X432500D03*
X436000D03*
X440000Y32000D03*
X443500D03*
X447000D03*
G54D25*G54D26*G54D25*G54D26*G54D25*G54D26*G54D25*G54D26*G54D25*G54D26*G54D25*G54D26*G54D25*G54D26*G54D25*G54D26*G54D25*G54D26*G54D25*G54D26*G54D25*G54D26*G54D25*G54D26*G54D25*G54D26*G54D25*G54D26*M02*
