G04 start of page 11 for group -4014 idx -4014 *
G04 Title: (unknown), bottompaste *
G04 Creator: pcb 4.0.2 *
G04 CreationDate: Fri Feb  3 04:46:59 2023 UTC *
G04 For: ndholmes *
G04 Format: Gerber/RS-274X *
G04 PCB-Dimensions (mil): 1620.00 5800.00 *
G04 PCB-Coordinate-Origin: lower left *
%MOIN*%
%FSLAX25Y25*%
%LNBOTTOMPASTE*%
%ADD29C,0.0001*%
G54D29*G36*
X55520Y515232D02*Y510508D01*
X70480D01*
Y515232D01*
X55520D01*
G37*
G36*
X56307Y535705D02*Y527831D01*
X69693D01*
Y535705D01*
X56307D01*
G37*
G36*
X49500Y518000D02*X41500D01*
Y500500D01*
X49500D01*
Y518000D01*
G37*
G36*
Y538500D02*X41500D01*
Y521000D01*
X49500D01*
Y538500D01*
G37*
G36*
X55520Y464232D02*Y459508D01*
X70480D01*
Y464232D01*
X55520D01*
G37*
G36*
X56307Y484705D02*Y476831D01*
X69693D01*
Y484705D01*
X56307D01*
G37*
G36*
X49500Y467000D02*X41500D01*
Y449500D01*
X49500D01*
Y467000D01*
G37*
G36*
Y487500D02*X41500D01*
Y470000D01*
X49500D01*
Y487500D01*
G37*
G36*
X55520Y413232D02*Y408508D01*
X70480D01*
Y413232D01*
X55520D01*
G37*
G36*
X56307Y433705D02*Y425831D01*
X69693D01*
Y433705D01*
X56307D01*
G37*
G36*
X49500Y416000D02*X41500D01*
Y398500D01*
X49500D01*
Y416000D01*
G37*
G36*
Y436500D02*X41500D01*
Y419000D01*
X49500D01*
Y436500D01*
G37*
G36*
X55520Y362232D02*Y357508D01*
X70480D01*
Y362232D01*
X55520D01*
G37*
G36*
X56307Y382705D02*Y374831D01*
X69693D01*
Y382705D01*
X56307D01*
G37*
G36*
X49500Y365000D02*X41500D01*
Y347500D01*
X49500D01*
Y365000D01*
G37*
G36*
Y385500D02*X41500D01*
Y368000D01*
X49500D01*
Y385500D01*
G37*
G36*
X55520Y311232D02*Y306508D01*
X70480D01*
Y311232D01*
X55520D01*
G37*
G36*
X56307Y331705D02*Y323831D01*
X69693D01*
Y331705D01*
X56307D01*
G37*
G36*
X49500Y314000D02*X41500D01*
Y296500D01*
X49500D01*
Y314000D01*
G37*
G36*
Y334500D02*X41500D01*
Y317000D01*
X49500D01*
Y334500D01*
G37*
G36*
X55520Y260232D02*Y255508D01*
X70480D01*
Y260232D01*
X55520D01*
G37*
G36*
X56307Y280705D02*Y272831D01*
X69693D01*
Y280705D01*
X56307D01*
G37*
G36*
X49500Y263000D02*X41500D01*
Y245500D01*
X49500D01*
Y263000D01*
G37*
G36*
Y283500D02*X41500D01*
Y266000D01*
X49500D01*
Y283500D01*
G37*
G36*
X55520Y209232D02*Y204508D01*
X70480D01*
Y209232D01*
X55520D01*
G37*
G36*
X56307Y229705D02*Y221831D01*
X69693D01*
Y229705D01*
X56307D01*
G37*
G36*
X49500Y212000D02*X41500D01*
Y194500D01*
X49500D01*
Y212000D01*
G37*
G36*
Y232500D02*X41500D01*
Y215000D01*
X49500D01*
Y232500D01*
G37*
G36*
X55520Y158232D02*Y153508D01*
X70480D01*
Y158232D01*
X55520D01*
G37*
G36*
X56307Y178705D02*Y170831D01*
X69693D01*
Y178705D01*
X56307D01*
G37*
G36*
X49500Y161000D02*X41500D01*
Y143500D01*
X49500D01*
Y161000D01*
G37*
G36*
Y181500D02*X41500D01*
Y164000D01*
X49500D01*
Y181500D01*
G37*
G36*
X55520Y107232D02*Y102508D01*
X70480D01*
Y107232D01*
X55520D01*
G37*
G36*
X56307Y127705D02*Y119831D01*
X69693D01*
Y127705D01*
X56307D01*
G37*
G36*
X49500Y110000D02*X41500D01*
Y92500D01*
X49500D01*
Y110000D01*
G37*
G36*
Y130500D02*X41500D01*
Y113000D01*
X49500D01*
Y130500D01*
G37*
G36*
X55520Y56232D02*Y51508D01*
X70480D01*
Y56232D01*
X55520D01*
G37*
G36*
X56307Y76705D02*Y68831D01*
X69693D01*
Y76705D01*
X56307D01*
G37*
G36*
X49500Y59000D02*X41500D01*
Y41500D01*
X49500D01*
Y59000D01*
G37*
G36*
Y79500D02*X41500D01*
Y62000D01*
X49500D01*
Y79500D01*
G37*
G36*
X91520Y69492D02*Y64768D01*
X106480D01*
Y69492D01*
X91520D01*
G37*
G36*
X92307Y52169D02*Y44295D01*
X105693D01*
Y52169D01*
X92307D01*
G37*
G36*
X120500Y79500D02*X112500D01*
Y62000D01*
X120500D01*
Y79500D01*
G37*
G36*
Y59000D02*X112500D01*
Y41500D01*
X120500D01*
Y59000D01*
G37*
G36*
X91520Y120492D02*Y115768D01*
X106480D01*
Y120492D01*
X91520D01*
G37*
G36*
X92307Y103169D02*Y95295D01*
X105693D01*
Y103169D01*
X92307D01*
G37*
G36*
X120500Y130500D02*X112500D01*
Y113000D01*
X120500D01*
Y130500D01*
G37*
G36*
Y110000D02*X112500D01*
Y92500D01*
X120500D01*
Y110000D01*
G37*
G36*
X91520Y171492D02*Y166768D01*
X106480D01*
Y171492D01*
X91520D01*
G37*
G36*
X92307Y154169D02*Y146295D01*
X105693D01*
Y154169D01*
X92307D01*
G37*
G36*
X120500Y181500D02*X112500D01*
Y164000D01*
X120500D01*
Y181500D01*
G37*
G36*
Y161000D02*X112500D01*
Y143500D01*
X120500D01*
Y161000D01*
G37*
G36*
X91520Y222492D02*Y217768D01*
X106480D01*
Y222492D01*
X91520D01*
G37*
G36*
X92307Y205169D02*Y197295D01*
X105693D01*
Y205169D01*
X92307D01*
G37*
G36*
X120500Y232500D02*X112500D01*
Y215000D01*
X120500D01*
Y232500D01*
G37*
G36*
Y212000D02*X112500D01*
Y194500D01*
X120500D01*
Y212000D01*
G37*
G36*
X91520Y273492D02*Y268768D01*
X106480D01*
Y273492D01*
X91520D01*
G37*
G36*
X92307Y256169D02*Y248295D01*
X105693D01*
Y256169D01*
X92307D01*
G37*
G36*
X120500Y283500D02*X112500D01*
Y266000D01*
X120500D01*
Y283500D01*
G37*
G36*
Y263000D02*X112500D01*
Y245500D01*
X120500D01*
Y263000D01*
G37*
G36*
X91520Y324492D02*Y319768D01*
X106480D01*
Y324492D01*
X91520D01*
G37*
G36*
X92307Y307169D02*Y299295D01*
X105693D01*
Y307169D01*
X92307D01*
G37*
G36*
X120500Y334500D02*X112500D01*
Y317000D01*
X120500D01*
Y334500D01*
G37*
G36*
Y314000D02*X112500D01*
Y296500D01*
X120500D01*
Y314000D01*
G37*
G36*
X91520Y375492D02*Y370768D01*
X106480D01*
Y375492D01*
X91520D01*
G37*
G36*
X92307Y358169D02*Y350295D01*
X105693D01*
Y358169D01*
X92307D01*
G37*
G36*
X120500Y385500D02*X112500D01*
Y368000D01*
X120500D01*
Y385500D01*
G37*
G36*
Y365000D02*X112500D01*
Y347500D01*
X120500D01*
Y365000D01*
G37*
G36*
X91520Y426492D02*Y421768D01*
X106480D01*
Y426492D01*
X91520D01*
G37*
G36*
X92307Y409169D02*Y401295D01*
X105693D01*
Y409169D01*
X92307D01*
G37*
G36*
X120500Y436500D02*X112500D01*
Y419000D01*
X120500D01*
Y436500D01*
G37*
G36*
Y416000D02*X112500D01*
Y398500D01*
X120500D01*
Y416000D01*
G37*
G36*
X91520Y477492D02*Y472768D01*
X106480D01*
Y477492D01*
X91520D01*
G37*
G36*
X92307Y460169D02*Y452295D01*
X105693D01*
Y460169D01*
X92307D01*
G37*
G36*
X120500Y487500D02*X112500D01*
Y470000D01*
X120500D01*
Y487500D01*
G37*
G36*
Y467000D02*X112500D01*
Y449500D01*
X120500D01*
Y467000D01*
G37*
G36*
X91520Y528492D02*Y523768D01*
X106480D01*
Y528492D01*
X91520D01*
G37*
G36*
X92307Y511169D02*Y503295D01*
X105693D01*
Y511169D01*
X92307D01*
G37*
G36*
X120500Y538500D02*X112500D01*
Y521000D01*
X120500D01*
Y538500D01*
G37*
G36*
Y518000D02*X112500D01*
Y500500D01*
X120500D01*
Y518000D01*
G37*
M02*
