M48
INCH
T19C0.012
%
T19
X005000Y050500
X005000Y050200
X005000Y045400
X005000Y045100
X005000Y040300
X005000Y040000
X005000Y035200
X005000Y034900
X005000Y030100
X005000Y029800
X005000Y025000
X005000Y024700
X005000Y019900
X005000Y019600
X005000Y014800
X005000Y014500
X005000Y009700
X005000Y009400
X005000Y004600
X005000Y004300
X005300Y051900
X005300Y046800
X005300Y041700
X005300Y036600
X005300Y031500
X005300Y026400
X005300Y021300
X005300Y016200
X005300Y011100
X005300Y006000
X005650Y051900
X005650Y046800
X005650Y041700
X005650Y036600
X005650Y031500
X005650Y026400
X005650Y021300
X005650Y016200
X005650Y011100
X005650Y006000
X006000Y051900
X006000Y046800
X006000Y041700
X006000Y036600
X006000Y031500
X006000Y026400
X006000Y021300
X006000Y016200
X006000Y011100
X006000Y006000
X006400Y052300
X006400Y047200
X006400Y042100
X006400Y037000
X006400Y031900
X006400Y026800
X006400Y021700
X006400Y016600
X006400Y011500
X006400Y006400
X006750Y052300
X006750Y047200
X006750Y042100
X006750Y037000
X006750Y031900
X006750Y026800
X006750Y021700
X006750Y016600
X006750Y011500
X006750Y006400
X007100Y052300
X007100Y047200
X007100Y042100
X007100Y037000
X007100Y031900
X007100Y026800
X007100Y021700
X007100Y016600
X007100Y011500
X007100Y006400
X009100Y051600
X009100Y046500
X009100Y041400
X009100Y036300
X009100Y031200
X009100Y026100
X009100Y021000
X009100Y015900
X009100Y010800
X009100Y005700
X009450Y051600
X009450Y046500
X009450Y041400
X009450Y036300
X009450Y031200
X009450Y026100
X009450Y021000
X009450Y015900
X009450Y010800
X009450Y005700
X009800Y051600
X009800Y046500
X009800Y041400
X009800Y036300
X009800Y031200
X009800Y026100
X009800Y021000
X009800Y015900
X009800Y010800
X009800Y005700
X010200Y052000
X010200Y046900
X010200Y041800
X010200Y036700
X010200Y031600
X010200Y026500
X010200Y021400
X010200Y016300
X010200Y011200
X010200Y006100
X010550Y052000
X010550Y046900
X010550Y041800
X010550Y036700
X010550Y031600
X010550Y026500
X010550Y021400
X010550Y016300
X010550Y011200
X010550Y006100
X010900Y052000
X010900Y046900
X010900Y041800
X010900Y036700
X010900Y031600
X010900Y026500
X010900Y021400
X010900Y016300
X010900Y011200
X010900Y006100
X011200Y053700
X011200Y053400
X011200Y048600
X011200Y048300
X011200Y043500
X011200Y043200
X011200Y038400
X011200Y038100
X011200Y033300
X011200Y033000
X011200Y028200
X011200Y027900
X011200Y023100
X011200Y022800
X011200Y018000
X011200Y017700
X011200Y012900
X011200Y012600
X011200Y007800
X011200Y007500
M30
