G04 start of page 4 for group 2 idx 2 *
G04 Title: (unknown), outline *
G04 Creator: pcb 4.0.2 *
G04 CreationDate: Fri Feb  3 04:46:59 2023 UTC *
G04 For: ndholmes *
G04 Format: Gerber/RS-274X *
G04 PCB-Dimensions (mil): 1620.00 5800.00 *
G04 PCB-Coordinate-Origin: lower left *
%MOIN*%
%FSLAX25Y25*%
%LNOUTLINE*%
%ADD18C,0.0100*%
G54D18*X40000Y244000D02*X76000D01*
Y285000D02*Y244000D01*
X40000Y285000D02*Y274500D01*
Y244000D02*Y254500D01*
Y234000D02*X76000D01*
X40000Y285000D02*X76000D01*
X40000Y193000D02*X76000D01*
Y234000D02*Y193000D01*
X40000Y234000D02*Y223500D01*
Y193000D02*Y203500D01*
X30000Y254500D02*Y223500D01*
Y203500D02*Y172500D01*
X40000Y142000D02*X76000D01*
Y183000D02*Y142000D01*
X40000Y183000D02*Y172500D01*
Y142000D02*Y152500D01*
Y132000D02*X76000D01*
X40000Y183000D02*X76000D01*
X40000Y91000D02*X76000D01*
Y132000D02*Y91000D01*
X40000Y132000D02*Y121500D01*
Y91000D02*Y101500D01*
X30000Y152500D02*Y121500D01*
Y101500D02*Y70500D01*
X40000Y40000D02*X76000D01*
Y81000D02*Y40000D01*
X40000Y81000D02*Y70500D01*
Y40000D02*Y50500D01*
Y81000D02*X76000D01*
X86000D02*X122000D01*
X86000Y40000D02*X122000D01*
X86000Y81000D02*Y40000D01*
X122000Y50500D02*Y40000D01*
Y81000D02*Y70500D01*
X132000Y50500D02*Y30000D01*
Y101500D02*Y70500D01*
X30000Y50500D02*Y30000D01*
X10000Y15000D02*X152000D01*
X30000Y30000D02*X132000D01*
X86000Y132000D02*X122000D01*
X86000D02*Y91000D01*
X122000Y101500D02*Y91000D01*
Y132000D02*Y121500D01*
X86000Y142000D02*X122000D01*
X86000Y91000D02*X122000D01*
X86000Y183000D02*X122000D01*
X86000D02*Y142000D01*
X122000Y152500D02*Y142000D01*
Y183000D02*Y172500D01*
X132000Y152500D02*Y121500D01*
Y203500D02*Y172500D01*
X40000Y448000D02*X76000D01*
X40000Y438000D02*X76000D01*
Y397000D01*
X40000Y438000D02*Y427500D01*
Y448000D02*Y458500D01*
X30000D02*Y427500D01*
X40000Y397000D02*X76000D01*
X40000D02*Y407500D01*
Y387000D02*X76000D01*
X40000D02*Y376500D01*
X30000Y407500D02*Y376500D01*
X40000Y499000D02*X76000D01*
X40000Y540000D02*X76000D01*
Y499000D01*
X40000Y540000D02*Y529500D01*
Y499000D02*Y509500D01*
X30000Y550000D02*Y529500D01*
X40000Y489000D02*X76000D01*
Y448000D01*
X40000Y489000D02*Y478500D01*
X30000Y509500D02*Y478500D01*
X10000Y565000D02*X152000D01*
X30000Y550000D02*X132000D01*
X40000Y346000D02*X76000D01*
Y387000D02*Y346000D01*
X40000D02*Y356500D01*
Y295000D02*X76000D01*
X40000Y336000D02*X76000D01*
Y295000D01*
X40000Y336000D02*Y325500D01*
Y295000D02*Y305500D01*
X30000Y356500D02*Y325500D01*
Y305500D02*Y274500D01*
X10000Y565000D02*Y15000D01*
X152000D02*Y565000D01*
X86000Y234000D02*X122000D01*
X86000D02*Y193000D01*
X122000Y203500D02*Y193000D01*
Y234000D02*Y223500D01*
X86000Y244000D02*X122000D01*
X86000Y193000D02*X122000D01*
X86000Y285000D02*X122000D01*
X86000D02*Y244000D01*
X122000Y254500D02*Y244000D01*
Y285000D02*Y274500D01*
X132000Y254500D02*Y223500D01*
Y305500D02*Y274500D01*
X86000Y336000D02*X122000D01*
X86000D02*Y295000D01*
X122000Y305500D02*Y295000D01*
Y336000D02*Y325500D01*
X86000Y346000D02*X122000D01*
X86000Y295000D02*X122000D01*
X86000Y387000D02*X122000D01*
X86000D02*Y346000D01*
X122000Y356500D02*Y346000D01*
Y387000D02*Y376500D01*
X132000Y356500D02*Y325500D01*
Y407500D02*Y376500D01*
X86000Y438000D02*X122000D01*
X86000D02*Y397000D01*
X122000Y407500D02*Y397000D01*
Y438000D02*Y427500D01*
X86000Y448000D02*X122000D01*
X86000Y397000D02*X122000D01*
X86000Y489000D02*X122000D01*
X86000D02*Y448000D01*
X122000Y458500D02*Y448000D01*
Y489000D02*Y478500D01*
X132000Y458500D02*Y427500D01*
Y509500D02*Y478500D01*
Y550000D02*Y529500D01*
X86000Y540000D02*X122000D01*
X86000D02*Y499000D01*
X122000Y509500D02*Y499000D01*
Y540000D02*Y529500D01*
X86000Y499000D02*X122000D01*
X40000Y254500D02*G75*G03X35000Y259500I-5000J0D01*G01*
G75*G03X30000Y254500I0J-5000D01*G01*
Y223500D02*G75*G03X35000Y218500I5000J0D01*G01*
G75*G03X40000Y223500I0J5000D01*G01*
Y203500D02*G75*G03X35000Y208500I-5000J0D01*G01*
G75*G03X30000Y203500I0J-5000D01*G01*
Y172500D02*G75*G03X35000Y167500I5000J0D01*G01*
G75*G03X40000Y172500I0J5000D01*G01*
Y152500D02*G75*G03X35000Y157500I-5000J0D01*G01*
G75*G03X30000Y152500I0J-5000D01*G01*
Y121500D02*G75*G03X35000Y116500I5000J0D01*G01*
G75*G03X40000Y121500I0J5000D01*G01*
Y101500D02*G75*G03X35000Y106500I-5000J0D01*G01*
G75*G03X30000Y101500I0J-5000D01*G01*
Y70500D02*G75*G03X35000Y65500I5000J0D01*G01*
G75*G03X40000Y70500I0J5000D01*G01*
Y50500D02*G75*G03X35000Y55500I-5000J0D01*G01*
G75*G03X30000Y50500I0J-5000D01*G01*
X132000D02*G75*G03X127000Y55500I-5000J0D01*G01*
G75*G03X122000Y50500I0J-5000D01*G01*
Y70500D02*G75*G03X127000Y65500I5000J0D01*G01*
G75*G03X132000Y70500I0J5000D01*G01*
Y101500D02*G75*G03X127000Y106500I-5000J0D01*G01*
G75*G03X122000Y101500I0J-5000D01*G01*
Y121500D02*G75*G03X127000Y116500I5000J0D01*G01*
G75*G03X132000Y121500I0J5000D01*G01*
Y152500D02*G75*G03X127000Y157500I-5000J0D01*G01*
G75*G03X122000Y152500I0J-5000D01*G01*
Y172500D02*G75*G03X127000Y167500I5000J0D01*G01*
G75*G03X132000Y172500I0J5000D01*G01*
Y203500D02*G75*G03X127000Y208500I-5000J0D01*G01*
G75*G03X122000Y203500I0J-5000D01*G01*
Y223500D02*G75*G03X127000Y218500I5000J0D01*G01*
G75*G03X132000Y223500I0J5000D01*G01*
Y254500D02*G75*G03X127000Y259500I-5000J0D01*G01*
G75*G03X122000Y254500I0J-5000D01*G01*
Y274500D02*G75*G03X127000Y269500I5000J0D01*G01*
G75*G03X132000Y274500I0J5000D01*G01*
Y305500D02*G75*G03X127000Y310500I-5000J0D01*G01*
G75*G03X122000Y305500I0J-5000D01*G01*
Y325500D02*G75*G03X127000Y320500I5000J0D01*G01*
G75*G03X132000Y325500I0J5000D01*G01*
Y356500D02*G75*G03X127000Y361500I-5000J0D01*G01*
G75*G03X122000Y356500I0J-5000D01*G01*
Y376500D02*G75*G03X127000Y371500I5000J0D01*G01*
G75*G03X132000Y376500I0J5000D01*G01*
Y407500D02*G75*G03X127000Y412500I-5000J0D01*G01*
G75*G03X122000Y407500I0J-5000D01*G01*
Y427500D02*G75*G03X127000Y422500I5000J0D01*G01*
G75*G03X132000Y427500I0J5000D01*G01*
Y458500D02*G75*G03X127000Y463500I-5000J0D01*G01*
G75*G03X122000Y458500I0J-5000D01*G01*
Y478500D02*G75*G03X127000Y473500I5000J0D01*G01*
G75*G03X132000Y478500I0J5000D01*G01*
Y509500D02*G75*G03X127000Y514500I-5000J0D01*G01*
G75*G03X122000Y509500I0J-5000D01*G01*
Y529500D02*G75*G03X127000Y524500I5000J0D01*G01*
G75*G03X132000Y529500I0J5000D01*G01*
X30000Y427500D02*G75*G03X35000Y422500I5000J0D01*G01*
G75*G03X40000Y427500I0J5000D01*G01*
Y407500D02*G75*G03X35000Y412500I-5000J0D01*G01*
G75*G03X30000Y407500I0J-5000D01*G01*
Y376500D02*G75*G03X35000Y371500I5000J0D01*G01*
G75*G03X40000Y376500I0J5000D01*G01*
X30000Y478500D02*G75*G03X35000Y473500I5000J0D01*G01*
G75*G03X40000Y478500I0J5000D01*G01*
Y458500D02*G75*G03X35000Y463500I-5000J0D01*G01*
G75*G03X30000Y458500I0J-5000D01*G01*
Y529500D02*G75*G03X35000Y524500I5000J0D01*G01*
G75*G03X40000Y529500I0J5000D01*G01*
Y509500D02*G75*G03X35000Y514500I-5000J0D01*G01*
G75*G03X30000Y509500I0J-5000D01*G01*
X40000Y356500D02*G75*G03X35000Y361500I-5000J0D01*G01*
G75*G03X30000Y356500I0J-5000D01*G01*
Y325500D02*G75*G03X35000Y320500I5000J0D01*G01*
G75*G03X40000Y325500I0J5000D01*G01*
Y305500D02*G75*G03X35000Y310500I-5000J0D01*G01*
G75*G03X30000Y305500I0J-5000D01*G01*
Y274500D02*G75*G03X35000Y269500I5000J0D01*G01*
G75*G03X40000Y274500I0J5000D01*G01*
M02*
