G04 start of page 9 for group -4078 idx -4078 *
G04 Title: (unknown), bottomsilk *
G04 Creator: pcb 4.0.2 *
G04 CreationDate: Fri Feb  3 04:46:59 2023 UTC *
G04 For: ndholmes *
G04 Format: Gerber/RS-274X *
G04 PCB-Dimensions (mil): 1620.00 5800.00 *
G04 PCB-Coordinate-Origin: lower left *
%MOIN*%
%FSLAX25Y25*%
%LNBOTTOMSILK*%
%ADD27C,0.0060*%
%ADD26C,0.0066*%
%ADD25C,0.0100*%
G54D25*X40500Y397500D02*X75500D01*
Y386500D02*Y346500D01*
X40500Y386500D02*X75500D01*
X40500D02*Y346500D01*
X75500Y437500D02*Y397500D01*
X40500Y437500D02*Y397500D01*
Y284500D02*Y244500D01*
Y346500D02*X75500D01*
X40500Y295500D02*X75500D01*
Y335500D02*Y295500D01*
X40500Y335500D02*X75500D01*
X40500D02*Y295500D01*
Y284500D02*X75500D01*
X40500Y448500D02*X75500D01*
Y488500D02*Y448500D01*
X40500Y488500D02*X75500D01*
X40500D02*Y448500D01*
Y499500D02*X75500D01*
Y539500D02*Y499500D01*
X40500Y539500D02*X75500D01*
X40500D02*Y499500D01*
Y437500D02*X75500D01*
X86500Y335500D02*X121500D01*
X86500Y386500D02*Y346500D01*
X121500D01*
Y386500D02*Y346500D01*
X86500Y335500D02*Y295500D01*
Y386500D02*X121500D01*
X86500Y437500D02*X121500D01*
X86500D02*Y397500D01*
X121500D01*
Y437500D02*Y397500D01*
X86500Y488500D02*X121500D01*
X86500Y539500D02*X121500D01*
X86500D02*Y499500D01*
X121500D01*
Y539500D02*Y499500D01*
X86500Y488500D02*Y448500D01*
X121500Y488500D02*Y448500D01*
X86500D02*X121500D01*
X40500Y244500D02*X75500D01*
Y233500D02*Y193500D01*
X40500Y233500D02*X75500D01*
X40500D02*Y193500D01*
X75500Y284500D02*Y244500D01*
X40500Y193500D02*X75500D01*
X40500Y142500D02*X75500D01*
Y182500D02*Y142500D01*
X40500Y182500D02*X75500D01*
X40500D02*Y142500D01*
Y91500D02*X75500D01*
X40500Y80500D02*X75500D01*
X40500D02*Y40500D01*
X75500Y131500D02*Y91500D01*
X40500Y131500D02*Y91500D01*
Y131500D02*X75500D01*
X86500D02*Y91500D01*
X40500Y40500D02*X75500D01*
Y80500D02*Y40500D01*
X86500Y80500D02*Y40500D01*
X121500D01*
X86500Y131500D02*X121500D01*
X86500Y142500D02*X121500D01*
X86500Y80500D02*X121500D01*
Y40500D01*
X86500Y91500D02*X121500D01*
Y131500D02*Y91500D01*
Y182500D02*Y142500D01*
Y335500D02*Y295500D01*
X86500Y182500D02*X121500D01*
X86500Y233500D02*Y193500D01*
X121500D01*
Y233500D02*Y193500D01*
X86500Y182500D02*Y142500D01*
Y233500D02*X121500D01*
X86500Y284500D02*X121500D01*
X86500D02*Y244500D01*
X121500D01*
Y284500D02*Y244500D01*
X86500Y295500D02*X121500D01*
G54D26*X51180Y350520D02*X54500D01*
X52840Y348860D02*Y352180D01*
X51180Y248520D02*X54500D01*
X52840Y246860D02*Y250180D01*
X51180Y197520D02*X54500D01*
X52840Y195860D02*Y199180D01*
X51180Y299520D02*X54500D01*
X52840Y297860D02*Y301180D01*
G54D27*X56870Y298240D02*Y301200D01*
X57980Y298240D02*X58350Y298610D01*
Y300830D01*
X57980Y301200D02*X58350Y300830D01*
X56500Y301200D02*X57980D01*
X56500Y298240D02*X57980D01*
X59608Y301200D02*X60718D01*
X59238Y300830D02*X59608Y301200D01*
X59238Y298610D02*Y300830D01*
Y298610D02*X59608Y298240D01*
X60718D01*
X61976Y301200D02*X63086D01*
X61606Y300830D02*X61976Y301200D01*
X61606Y298610D02*Y300830D01*
Y298610D02*X61976Y298240D01*
X63086D01*
X65454D02*X65824Y298610D01*
X64344Y298240D02*X65454D01*
X63974Y298610D02*X64344Y298240D01*
X63974Y298610D02*Y299350D01*
X64344Y299720D01*
X65454D01*
X65824Y300090D01*
Y300830D01*
X65454Y301200D02*X65824Y300830D01*
X64344Y301200D02*X65454D01*
X63974Y300830D02*X64344Y301200D01*
X66712Y298610D02*Y301200D01*
Y298610D02*X67082Y298240D01*
X68192D01*
X68562Y298610D01*
Y301200D01*
X66712Y299720D02*X68562D01*
X72000Y298610D02*X72370Y298240D01*
X73110D01*
X73480Y298610D01*
Y300830D01*
X73110Y301200D02*X73480Y300830D01*
X72370Y301200D02*X73110D01*
X72000Y300830D02*X72370Y301200D01*
Y299720D02*X73480D01*
X56870Y247240D02*Y250200D01*
X57980Y247240D02*X58350Y247610D01*
Y249830D01*
X57980Y250200D02*X58350Y249830D01*
X56500Y250200D02*X57980D01*
X56500Y247240D02*X57980D01*
X59608Y250200D02*X60718D01*
X59238Y249830D02*X59608Y250200D01*
X59238Y247610D02*Y249830D01*
Y247610D02*X59608Y247240D01*
X60718D01*
X61976Y250200D02*X63086D01*
X61606Y249830D02*X61976Y250200D01*
X61606Y247610D02*Y249830D01*
Y247610D02*X61976Y247240D01*
X63086D01*
X65454D02*X65824Y247610D01*
X64344Y247240D02*X65454D01*
X63974Y247610D02*X64344Y247240D01*
X63974Y247610D02*Y248350D01*
X64344Y248720D01*
X65454D01*
X65824Y249090D01*
Y249830D01*
X65454Y250200D02*X65824Y249830D01*
X64344Y250200D02*X65454D01*
X63974Y249830D02*X64344Y250200D01*
X66712Y247610D02*Y250200D01*
Y247610D02*X67082Y247240D01*
X68192D01*
X68562Y247610D01*
Y250200D01*
X66712Y248720D02*X68562D01*
X72000Y247610D02*X72370Y247240D01*
X73110D01*
X73480Y247610D01*
Y249830D01*
X73110Y250200D02*X73480Y249830D01*
X72370Y250200D02*X73110D01*
X72000Y249830D02*X72370Y250200D01*
Y248720D02*X73480D01*
X56870Y196240D02*Y199200D01*
X57980Y196240D02*X58350Y196610D01*
Y198830D01*
X57980Y199200D02*X58350Y198830D01*
X56500Y199200D02*X57980D01*
X56500Y196240D02*X57980D01*
X59608Y199200D02*X60718D01*
X59238Y198830D02*X59608Y199200D01*
X59238Y196610D02*Y198830D01*
Y196610D02*X59608Y196240D01*
X60718D01*
X61976Y199200D02*X63086D01*
X61606Y198830D02*X61976Y199200D01*
X61606Y196610D02*Y198830D01*
Y196610D02*X61976Y196240D01*
X63086D01*
X65454D02*X65824Y196610D01*
X64344Y196240D02*X65454D01*
X63974Y196610D02*X64344Y196240D01*
X63974Y196610D02*Y197350D01*
X64344Y197720D01*
X65454D01*
X65824Y198090D01*
Y198830D01*
X65454Y199200D02*X65824Y198830D01*
X64344Y199200D02*X65454D01*
X63974Y198830D02*X64344Y199200D01*
X66712Y196610D02*Y199200D01*
Y196610D02*X67082Y196240D01*
X68192D01*
X68562Y196610D01*
Y199200D01*
X66712Y197720D02*X68562D01*
X72000Y196610D02*X72370Y196240D01*
X73110D01*
X73480Y196610D01*
Y198830D01*
X73110Y199200D02*X73480Y198830D01*
X72370Y199200D02*X73110D01*
X72000Y198830D02*X72370Y199200D01*
Y197720D02*X73480D01*
G54D26*X51180Y452520D02*X54500D01*
X52840Y450860D02*Y454180D01*
G54D27*X56870Y451240D02*Y454200D01*
X57980Y451240D02*X58350Y451610D01*
Y453830D01*
X57980Y454200D02*X58350Y453830D01*
X56500Y454200D02*X57980D01*
X56500Y451240D02*X57980D01*
X59608Y454200D02*X60718D01*
X59238Y453830D02*X59608Y454200D01*
X59238Y451610D02*Y453830D01*
Y451610D02*X59608Y451240D01*
X60718D01*
X61976Y454200D02*X63086D01*
X61606Y453830D02*X61976Y454200D01*
X61606Y451610D02*Y453830D01*
Y451610D02*X61976Y451240D01*
X63086D01*
X65454D02*X65824Y451610D01*
X64344Y451240D02*X65454D01*
X63974Y451610D02*X64344Y451240D01*
X63974Y451610D02*Y452350D01*
X64344Y452720D01*
X65454D01*
X65824Y453090D01*
Y453830D01*
X65454Y454200D02*X65824Y453830D01*
X64344Y454200D02*X65454D01*
X63974Y453830D02*X64344Y454200D01*
X66712Y451610D02*Y454200D01*
Y451610D02*X67082Y451240D01*
X68192D01*
X68562Y451610D01*
Y454200D01*
X66712Y452720D02*X68562D01*
X72000Y451610D02*X72370Y451240D01*
X73110D01*
X73480Y451610D01*
Y453830D01*
X73110Y454200D02*X73480Y453830D01*
X72370Y454200D02*X73110D01*
X72000Y453830D02*X72370Y454200D01*
Y452720D02*X73480D01*
G54D26*X51180Y401520D02*X54500D01*
X52840Y399860D02*Y403180D01*
G54D27*X56870Y400240D02*Y403200D01*
X57980Y400240D02*X58350Y400610D01*
Y402830D01*
X57980Y403200D02*X58350Y402830D01*
X56500Y403200D02*X57980D01*
X56500Y400240D02*X57980D01*
X59608Y403200D02*X60718D01*
X59238Y402830D02*X59608Y403200D01*
X59238Y400610D02*Y402830D01*
Y400610D02*X59608Y400240D01*
X60718D01*
X61976Y403200D02*X63086D01*
X61606Y402830D02*X61976Y403200D01*
X61606Y400610D02*Y402830D01*
Y400610D02*X61976Y400240D01*
X63086D01*
X65454D02*X65824Y400610D01*
X64344Y400240D02*X65454D01*
X63974Y400610D02*X64344Y400240D01*
X63974Y400610D02*Y401350D01*
X64344Y401720D01*
X65454D01*
X65824Y402090D01*
Y402830D01*
X65454Y403200D02*X65824Y402830D01*
X64344Y403200D02*X65454D01*
X63974Y402830D02*X64344Y403200D01*
X66712Y400610D02*Y403200D01*
Y400610D02*X67082Y400240D01*
X68192D01*
X68562Y400610D01*
Y403200D01*
X66712Y401720D02*X68562D01*
X72000Y400610D02*X72370Y400240D01*
X73110D01*
X73480Y400610D01*
Y402830D01*
X73110Y403200D02*X73480Y402830D01*
X72370Y403200D02*X73110D01*
X72000Y402830D02*X72370Y403200D01*
Y401720D02*X73480D01*
G54D26*X51180Y503520D02*X54500D01*
X52840Y501860D02*Y505180D01*
G54D27*X56870Y502240D02*Y505200D01*
X57980Y502240D02*X58350Y502610D01*
Y504830D01*
X57980Y505200D02*X58350Y504830D01*
X56500Y505200D02*X57980D01*
X56500Y502240D02*X57980D01*
X59608Y505200D02*X60718D01*
X59238Y504830D02*X59608Y505200D01*
X59238Y502610D02*Y504830D01*
Y502610D02*X59608Y502240D01*
X60718D01*
X61976Y505200D02*X63086D01*
X61606Y504830D02*X61976Y505200D01*
X61606Y502610D02*Y504830D01*
Y502610D02*X61976Y502240D01*
X63086D01*
X65454D02*X65824Y502610D01*
X64344Y502240D02*X65454D01*
X63974Y502610D02*X64344Y502240D01*
X63974Y502610D02*Y503350D01*
X64344Y503720D01*
X65454D01*
X65824Y504090D01*
Y504830D01*
X65454Y505200D02*X65824Y504830D01*
X64344Y505200D02*X65454D01*
X63974Y504830D02*X64344Y505200D01*
X66712Y502610D02*Y505200D01*
Y502610D02*X67082Y502240D01*
X68192D01*
X68562Y502610D01*
Y505200D01*
X66712Y503720D02*X68562D01*
X72000Y502610D02*X72370Y502240D01*
X73110D01*
X73480Y502610D01*
Y504830D01*
X73110Y505200D02*X73480Y504830D01*
X72370Y505200D02*X73110D01*
X72000Y504830D02*X72370Y505200D01*
Y503720D02*X73480D01*
X56870Y349240D02*Y352200D01*
X57980Y349240D02*X58350Y349610D01*
Y351830D01*
X57980Y352200D02*X58350Y351830D01*
X56500Y352200D02*X57980D01*
X56500Y349240D02*X57980D01*
X59608Y352200D02*X60718D01*
X59238Y351830D02*X59608Y352200D01*
X59238Y349610D02*Y351830D01*
Y349610D02*X59608Y349240D01*
X60718D01*
X61976Y352200D02*X63086D01*
X61606Y351830D02*X61976Y352200D01*
X61606Y349610D02*Y351830D01*
Y349610D02*X61976Y349240D01*
X63086D01*
X65454D02*X65824Y349610D01*
X64344Y349240D02*X65454D01*
X63974Y349610D02*X64344Y349240D01*
X63974Y349610D02*Y350350D01*
X64344Y350720D01*
X65454D01*
X65824Y351090D01*
Y351830D01*
X65454Y352200D02*X65824Y351830D01*
X64344Y352200D02*X65454D01*
X63974Y351830D02*X64344Y352200D01*
X66712Y349610D02*Y352200D01*
Y349610D02*X67082Y349240D01*
X68192D01*
X68562Y349610D01*
Y352200D01*
X66712Y350720D02*X68562D01*
X72000Y349610D02*X72370Y349240D01*
X73110D01*
X73480Y349610D01*
Y351830D01*
X73110Y352200D02*X73480Y351830D01*
X72370Y352200D02*X73110D01*
X72000Y351830D02*X72370Y352200D01*
Y350720D02*X73480D01*
G54D26*X51180Y146520D02*X54500D01*
X52840Y144860D02*Y148180D01*
X51180Y95520D02*X54500D01*
X52840Y93860D02*Y97180D01*
X51180Y44520D02*X54500D01*
X52840Y42860D02*Y46180D01*
G54D27*X56870Y145240D02*Y148200D01*
X57980Y145240D02*X58350Y145610D01*
Y147830D01*
X57980Y148200D02*X58350Y147830D01*
X56500Y148200D02*X57980D01*
X56500Y145240D02*X57980D01*
X59608Y148200D02*X60718D01*
X59238Y147830D02*X59608Y148200D01*
X59238Y145610D02*Y147830D01*
Y145610D02*X59608Y145240D01*
X60718D01*
X61976Y148200D02*X63086D01*
X61606Y147830D02*X61976Y148200D01*
X61606Y145610D02*Y147830D01*
Y145610D02*X61976Y145240D01*
X63086D01*
X65454D02*X65824Y145610D01*
X64344Y145240D02*X65454D01*
X63974Y145610D02*X64344Y145240D01*
X63974Y145610D02*Y146350D01*
X64344Y146720D01*
X65454D01*
X65824Y147090D01*
Y147830D01*
X65454Y148200D02*X65824Y147830D01*
X64344Y148200D02*X65454D01*
X63974Y147830D02*X64344Y148200D01*
X66712Y145610D02*Y148200D01*
Y145610D02*X67082Y145240D01*
X68192D01*
X68562Y145610D01*
Y148200D01*
X66712Y146720D02*X68562D01*
X56870Y94240D02*Y97200D01*
X57980Y94240D02*X58350Y94610D01*
Y96830D01*
X57980Y97200D02*X58350Y96830D01*
X56500Y97200D02*X57980D01*
X56500Y94240D02*X57980D01*
X59608Y97200D02*X60718D01*
X59238Y96830D02*X59608Y97200D01*
X59238Y94610D02*Y96830D01*
Y94610D02*X59608Y94240D01*
X60718D01*
X61976Y97200D02*X63086D01*
X61606Y96830D02*X61976Y97200D01*
X61606Y94610D02*Y96830D01*
Y94610D02*X61976Y94240D01*
X63086D01*
X65454D02*X65824Y94610D01*
X64344Y94240D02*X65454D01*
X63974Y94610D02*X64344Y94240D01*
X63974Y94610D02*Y95350D01*
X64344Y95720D01*
X65454D01*
X65824Y96090D01*
Y96830D01*
X65454Y97200D02*X65824Y96830D01*
X64344Y97200D02*X65454D01*
X63974Y96830D02*X64344Y97200D01*
X66712Y94610D02*Y97200D01*
Y94610D02*X67082Y94240D01*
X68192D01*
X68562Y94610D01*
Y97200D01*
X66712Y95720D02*X68562D01*
X56870Y43240D02*Y46200D01*
X57980Y43240D02*X58350Y43610D01*
Y45830D01*
X57980Y46200D02*X58350Y45830D01*
X56500Y46200D02*X57980D01*
X56500Y43240D02*X57980D01*
X59608Y46200D02*X60718D01*
X59238Y45830D02*X59608Y46200D01*
X59238Y43610D02*Y45830D01*
Y43610D02*X59608Y43240D01*
X60718D01*
X61976Y46200D02*X63086D01*
X61606Y45830D02*X61976Y46200D01*
X61606Y43610D02*Y45830D01*
Y43610D02*X61976Y43240D01*
X63086D01*
X65454D02*X65824Y43610D01*
X64344Y43240D02*X65454D01*
X63974Y43610D02*X64344Y43240D01*
X63974Y43610D02*Y44350D01*
X64344Y44720D01*
X65454D01*
X65824Y45090D01*
Y45830D01*
X65454Y46200D02*X65824Y45830D01*
X64344Y46200D02*X65454D01*
X63974Y45830D02*X64344Y46200D01*
X66712Y43610D02*Y46200D01*
Y43610D02*X67082Y43240D01*
X68192D01*
X68562Y43610D01*
Y46200D01*
X66712Y44720D02*X68562D01*
X72000Y145610D02*X72370Y145240D01*
X73110D01*
X73480Y145610D01*
Y147830D01*
X73110Y148200D02*X73480Y147830D01*
X72370Y148200D02*X73110D01*
X72000Y147830D02*X72370Y148200D01*
Y146720D02*X73480D01*
G54D26*X107500Y127480D02*X110820D01*
X109160Y125820D02*Y129140D01*
G54D27*X72000Y94610D02*X72370Y94240D01*
X73110D01*
X73480Y94610D01*
Y96830D01*
X73110Y97200D02*X73480Y96830D01*
X72370Y97200D02*X73110D01*
X72000Y96830D02*X72370Y97200D01*
Y95720D02*X73480D01*
X72000Y43610D02*X72370Y43240D01*
X73110D01*
X73480Y43610D01*
Y45830D01*
X73110Y46200D02*X73480Y45830D01*
X72370Y46200D02*X73110D01*
X72000Y45830D02*X72370Y46200D01*
Y44720D02*X73480D01*
G54D26*X107500Y76480D02*X110820D01*
X109160Y74820D02*Y78140D01*
G54D27*X105130Y74800D02*Y77760D01*
X104020D02*X103650Y77390D01*
Y75170D02*Y77390D01*
X104020Y74800D02*X103650Y75170D01*
X104020Y74800D02*X105500D01*
X104020Y77760D02*X105500D01*
X101282Y74800D02*X102392D01*
X102762Y75170D02*X102392Y74800D01*
X102762Y75170D02*Y77390D01*
X102392Y77760D01*
X101282D02*X102392D01*
X98914Y74800D02*X100024D01*
X100394Y75170D02*X100024Y74800D01*
X100394Y75170D02*Y77390D01*
X100024Y77760D01*
X98914D02*X100024D01*
X96546D02*X96176Y77390D01*
X96546Y77760D02*X97656D01*
X98026Y77390D02*X97656Y77760D01*
X98026Y76650D02*Y77390D01*
Y76650D02*X97656Y76280D01*
X96546D02*X97656D01*
X96546D02*X96176Y75910D01*
Y75170D02*Y75910D01*
X96546Y74800D02*X96176Y75170D01*
X96546Y74800D02*X97656D01*
X98026Y75170D02*X97656Y74800D01*
X95288D02*Y77390D01*
X94918Y77760D01*
X93808D02*X94918D01*
X93808D02*X93438Y77390D01*
Y74800D02*Y77390D01*
Y76280D02*X95288D01*
X90000Y77390D02*X89630Y77760D01*
X88890D02*X89630D01*
X88890D02*X88520Y77390D01*
Y75170D02*Y77390D01*
X88890Y74800D02*X88520Y75170D01*
X88890Y74800D02*X89630D01*
X90000Y75170D02*X89630Y74800D01*
X88520Y76280D02*X89630D01*
X105130Y125800D02*Y128760D01*
X104020D02*X103650Y128390D01*
Y126170D02*Y128390D01*
X104020Y125800D02*X103650Y126170D01*
X104020Y125800D02*X105500D01*
X104020Y128760D02*X105500D01*
X101282Y125800D02*X102392D01*
X102762Y126170D02*X102392Y125800D01*
X102762Y126170D02*Y128390D01*
X102392Y128760D01*
X101282D02*X102392D01*
X98914Y125800D02*X100024D01*
X100394Y126170D02*X100024Y125800D01*
X100394Y126170D02*Y128390D01*
X100024Y128760D01*
X98914D02*X100024D01*
X96546D02*X96176Y128390D01*
X96546Y128760D02*X97656D01*
X98026Y128390D02*X97656Y128760D01*
X98026Y127650D02*Y128390D01*
Y127650D02*X97656Y127280D01*
X96546D02*X97656D01*
X96546D02*X96176Y126910D01*
Y126170D02*Y126910D01*
X96546Y125800D02*X96176Y126170D01*
X96546Y125800D02*X97656D01*
X98026Y126170D02*X97656Y125800D01*
X95288D02*Y128390D01*
X94918Y128760D01*
X93808D02*X94918D01*
X93808D02*X93438Y128390D01*
Y125800D02*Y128390D01*
Y127280D02*X95288D01*
G54D26*X107500Y178480D02*X110820D01*
X109160Y176820D02*Y180140D01*
G54D27*X105130Y176800D02*Y179760D01*
X104020D02*X103650Y179390D01*
Y177170D02*Y179390D01*
X104020Y176800D02*X103650Y177170D01*
X104020Y176800D02*X105500D01*
X104020Y179760D02*X105500D01*
X101282Y176800D02*X102392D01*
X102762Y177170D02*X102392Y176800D01*
X102762Y177170D02*Y179390D01*
X102392Y179760D01*
X101282D02*X102392D01*
X98914Y176800D02*X100024D01*
X100394Y177170D02*X100024Y176800D01*
X100394Y177170D02*Y179390D01*
X100024Y179760D01*
X98914D02*X100024D01*
X96546D02*X96176Y179390D01*
X96546Y179760D02*X97656D01*
X98026Y179390D02*X97656Y179760D01*
X98026Y178650D02*Y179390D01*
Y178650D02*X97656Y178280D01*
X96546D02*X97656D01*
X96546D02*X96176Y177910D01*
Y177170D02*Y177910D01*
X96546Y176800D02*X96176Y177170D01*
X96546Y176800D02*X97656D01*
X98026Y177170D02*X97656Y176800D01*
X95288D02*Y179390D01*
X94918Y179760D01*
X93808D02*X94918D01*
X93808D02*X93438Y179390D01*
Y176800D02*Y179390D01*
Y178280D02*X95288D01*
X90000Y128390D02*X89630Y128760D01*
X88890D02*X89630D01*
X88890D02*X88520Y128390D01*
Y126170D02*Y128390D01*
X88890Y125800D02*X88520Y126170D01*
X88890Y125800D02*X89630D01*
X90000Y126170D02*X89630Y125800D01*
X88520Y127280D02*X89630D01*
X90000Y179390D02*X89630Y179760D01*
X88890D02*X89630D01*
X88890D02*X88520Y179390D01*
Y177170D02*Y179390D01*
X88890Y176800D02*X88520Y177170D01*
X88890Y176800D02*X89630D01*
X90000Y177170D02*X89630Y176800D01*
X88520Y178280D02*X89630D01*
X90000Y230390D02*X89630Y230760D01*
X88890D02*X89630D01*
X88890D02*X88520Y230390D01*
Y228170D02*Y230390D01*
X88890Y227800D02*X88520Y228170D01*
X88890Y227800D02*X89630D01*
X90000Y228170D02*X89630Y227800D01*
X88520Y229280D02*X89630D01*
G54D26*X107500Y229480D02*X110820D01*
X109160Y227820D02*Y231140D01*
G54D27*X105130Y227800D02*Y230760D01*
X104020D02*X103650Y230390D01*
Y228170D02*Y230390D01*
X104020Y227800D02*X103650Y228170D01*
X104020Y227800D02*X105500D01*
X104020Y230760D02*X105500D01*
X101282Y227800D02*X102392D01*
X102762Y228170D02*X102392Y227800D01*
X102762Y228170D02*Y230390D01*
X102392Y230760D01*
X101282D02*X102392D01*
X98914Y227800D02*X100024D01*
X100394Y228170D02*X100024Y227800D01*
X100394Y228170D02*Y230390D01*
X100024Y230760D01*
X98914D02*X100024D01*
X96546D02*X96176Y230390D01*
X96546Y230760D02*X97656D01*
X98026Y230390D02*X97656Y230760D01*
X98026Y229650D02*Y230390D01*
Y229650D02*X97656Y229280D01*
X96546D02*X97656D01*
X96546D02*X96176Y228910D01*
Y228170D02*Y228910D01*
X96546Y227800D02*X96176Y228170D01*
X96546Y227800D02*X97656D01*
X98026Y228170D02*X97656Y227800D01*
X95288D02*Y230390D01*
X94918Y230760D01*
X93808D02*X94918D01*
X93808D02*X93438Y230390D01*
Y227800D02*Y230390D01*
Y229280D02*X95288D01*
G54D26*X107500Y280480D02*X110820D01*
X109160Y278820D02*Y282140D01*
G54D27*X105130Y278800D02*Y281760D01*
X104020D02*X103650Y281390D01*
Y279170D02*Y281390D01*
X104020Y278800D02*X103650Y279170D01*
X104020Y278800D02*X105500D01*
X104020Y281760D02*X105500D01*
X101282Y278800D02*X102392D01*
X102762Y279170D02*X102392Y278800D01*
X102762Y279170D02*Y281390D01*
X102392Y281760D01*
X101282D02*X102392D01*
X98914Y278800D02*X100024D01*
X100394Y279170D02*X100024Y278800D01*
X100394Y279170D02*Y281390D01*
X100024Y281760D01*
X98914D02*X100024D01*
X96546D02*X96176Y281390D01*
X96546Y281760D02*X97656D01*
X98026Y281390D02*X97656Y281760D01*
X98026Y280650D02*Y281390D01*
Y280650D02*X97656Y280280D01*
X96546D02*X97656D01*
X96546D02*X96176Y279910D01*
Y279170D02*Y279910D01*
X96546Y278800D02*X96176Y279170D01*
X96546Y278800D02*X97656D01*
X98026Y279170D02*X97656Y278800D01*
X95288D02*Y281390D01*
X94918Y281760D01*
X93808D02*X94918D01*
X93808D02*X93438Y281390D01*
Y278800D02*Y281390D01*
Y280280D02*X95288D01*
X90000Y281390D02*X89630Y281760D01*
X88890D02*X89630D01*
X88890D02*X88520Y281390D01*
Y279170D02*Y281390D01*
X88890Y278800D02*X88520Y279170D01*
X88890Y278800D02*X89630D01*
X90000Y279170D02*X89630Y278800D01*
X88520Y280280D02*X89630D01*
G54D26*X107500Y331480D02*X110820D01*
X109160Y329820D02*Y333140D01*
X107500Y382480D02*X110820D01*
X109160Y380820D02*Y384140D01*
G54D27*X105130Y380800D02*Y383760D01*
X104020D02*X103650Y383390D01*
Y381170D02*Y383390D01*
X104020Y380800D02*X103650Y381170D01*
X104020Y380800D02*X105500D01*
X104020Y383760D02*X105500D01*
X101282Y380800D02*X102392D01*
X102762Y381170D02*X102392Y380800D01*
X102762Y381170D02*Y383390D01*
X102392Y383760D01*
X101282D02*X102392D01*
X98914Y380800D02*X100024D01*
X100394Y381170D02*X100024Y380800D01*
X100394Y381170D02*Y383390D01*
X100024Y383760D01*
X98914D02*X100024D01*
X96546D02*X96176Y383390D01*
X96546Y383760D02*X97656D01*
X98026Y383390D02*X97656Y383760D01*
X98026Y382650D02*Y383390D01*
Y382650D02*X97656Y382280D01*
X96546D02*X97656D01*
X96546D02*X96176Y381910D01*
Y381170D02*Y381910D01*
X96546Y380800D02*X96176Y381170D01*
X96546Y380800D02*X97656D01*
X98026Y381170D02*X97656Y380800D01*
X95288D02*Y383390D01*
X94918Y383760D01*
X93808D02*X94918D01*
X93808D02*X93438Y383390D01*
Y380800D02*Y383390D01*
Y382280D02*X95288D01*
X90000Y383390D02*X89630Y383760D01*
X88890D02*X89630D01*
X88890D02*X88520Y383390D01*
Y381170D02*Y383390D01*
X88890Y380800D02*X88520Y381170D01*
X88890Y380800D02*X89630D01*
X90000Y381170D02*X89630Y380800D01*
X88520Y382280D02*X89630D01*
X105130Y329800D02*Y332760D01*
X104020D02*X103650Y332390D01*
Y330170D02*Y332390D01*
X104020Y329800D02*X103650Y330170D01*
X104020Y329800D02*X105500D01*
X104020Y332760D02*X105500D01*
X101282Y329800D02*X102392D01*
X102762Y330170D02*X102392Y329800D01*
X102762Y330170D02*Y332390D01*
X102392Y332760D01*
X101282D02*X102392D01*
X98914Y329800D02*X100024D01*
X100394Y330170D02*X100024Y329800D01*
X100394Y330170D02*Y332390D01*
X100024Y332760D01*
X98914D02*X100024D01*
X96546D02*X96176Y332390D01*
X96546Y332760D02*X97656D01*
X98026Y332390D02*X97656Y332760D01*
X98026Y331650D02*Y332390D01*
Y331650D02*X97656Y331280D01*
X96546D02*X97656D01*
X96546D02*X96176Y330910D01*
Y330170D02*Y330910D01*
X96546Y329800D02*X96176Y330170D01*
X96546Y329800D02*X97656D01*
X98026Y330170D02*X97656Y329800D01*
X95288D02*Y332390D01*
X94918Y332760D01*
X93808D02*X94918D01*
X93808D02*X93438Y332390D01*
Y329800D02*Y332390D01*
Y331280D02*X95288D01*
X90000Y332390D02*X89630Y332760D01*
X88890D02*X89630D01*
X88890D02*X88520Y332390D01*
Y330170D02*Y332390D01*
X88890Y329800D02*X88520Y330170D01*
X88890Y329800D02*X89630D01*
X90000Y330170D02*X89630Y329800D01*
X88520Y331280D02*X89630D01*
G54D26*X107500Y433480D02*X110820D01*
X109160Y431820D02*Y435140D01*
G54D27*X105130Y431800D02*Y434760D01*
X104020D02*X103650Y434390D01*
Y432170D02*Y434390D01*
X104020Y431800D02*X103650Y432170D01*
X104020Y431800D02*X105500D01*
X104020Y434760D02*X105500D01*
X101282Y431800D02*X102392D01*
X102762Y432170D02*X102392Y431800D01*
X102762Y432170D02*Y434390D01*
X102392Y434760D01*
X101282D02*X102392D01*
X98914Y431800D02*X100024D01*
X100394Y432170D02*X100024Y431800D01*
X100394Y432170D02*Y434390D01*
X100024Y434760D01*
X98914D02*X100024D01*
X96546D02*X96176Y434390D01*
X96546Y434760D02*X97656D01*
X98026Y434390D02*X97656Y434760D01*
X98026Y433650D02*Y434390D01*
Y433650D02*X97656Y433280D01*
X96546D02*X97656D01*
X96546D02*X96176Y432910D01*
Y432170D02*Y432910D01*
X96546Y431800D02*X96176Y432170D01*
X96546Y431800D02*X97656D01*
X98026Y432170D02*X97656Y431800D01*
X95288D02*Y434390D01*
X94918Y434760D01*
X93808D02*X94918D01*
X93808D02*X93438Y434390D01*
Y431800D02*Y434390D01*
Y433280D02*X95288D01*
X90000Y434390D02*X89630Y434760D01*
X88890D02*X89630D01*
X88890D02*X88520Y434390D01*
Y432170D02*Y434390D01*
X88890Y431800D02*X88520Y432170D01*
X88890Y431800D02*X89630D01*
X90000Y432170D02*X89630Y431800D01*
X88520Y433280D02*X89630D01*
G54D26*X107500Y484480D02*X110820D01*
X109160Y482820D02*Y486140D01*
X107500Y535480D02*X110820D01*
X109160Y533820D02*Y537140D01*
G54D27*X105130Y533800D02*Y536760D01*
X104020D02*X103650Y536390D01*
Y534170D02*Y536390D01*
X104020Y533800D02*X103650Y534170D01*
X104020Y533800D02*X105500D01*
X104020Y536760D02*X105500D01*
X101282Y533800D02*X102392D01*
X102762Y534170D02*X102392Y533800D01*
X102762Y534170D02*Y536390D01*
X102392Y536760D01*
X101282D02*X102392D01*
X98914Y533800D02*X100024D01*
X100394Y534170D02*X100024Y533800D01*
X100394Y534170D02*Y536390D01*
X100024Y536760D01*
X98914D02*X100024D01*
X96546D02*X96176Y536390D01*
X96546Y536760D02*X97656D01*
X98026Y536390D02*X97656Y536760D01*
X98026Y535650D02*Y536390D01*
Y535650D02*X97656Y535280D01*
X96546D02*X97656D01*
X96546D02*X96176Y534910D01*
Y534170D02*Y534910D01*
X96546Y533800D02*X96176Y534170D01*
X96546Y533800D02*X97656D01*
X98026Y534170D02*X97656Y533800D01*
X95288D02*Y536390D01*
X94918Y536760D01*
X93808D02*X94918D01*
X93808D02*X93438Y536390D01*
Y533800D02*Y536390D01*
Y535280D02*X95288D01*
X90000Y536390D02*X89630Y536760D01*
X88890D02*X89630D01*
X88890D02*X88520Y536390D01*
Y534170D02*Y536390D01*
X88890Y533800D02*X88520Y534170D01*
X88890Y533800D02*X89630D01*
X90000Y534170D02*X89630Y533800D01*
X88520Y535280D02*X89630D01*
X105130Y482800D02*Y485760D01*
X104020D02*X103650Y485390D01*
Y483170D02*Y485390D01*
X104020Y482800D02*X103650Y483170D01*
X104020Y482800D02*X105500D01*
X104020Y485760D02*X105500D01*
X101282Y482800D02*X102392D01*
X102762Y483170D02*X102392Y482800D01*
X102762Y483170D02*Y485390D01*
X102392Y485760D01*
X101282D02*X102392D01*
X98914Y482800D02*X100024D01*
X100394Y483170D02*X100024Y482800D01*
X100394Y483170D02*Y485390D01*
X100024Y485760D01*
X98914D02*X100024D01*
X96546D02*X96176Y485390D01*
X96546Y485760D02*X97656D01*
X98026Y485390D02*X97656Y485760D01*
X98026Y484650D02*Y485390D01*
Y484650D02*X97656Y484280D01*
X96546D02*X97656D01*
X96546D02*X96176Y483910D01*
Y483170D02*Y483910D01*
X96546Y482800D02*X96176Y483170D01*
X96546Y482800D02*X97656D01*
X98026Y483170D02*X97656Y482800D01*
X95288D02*Y485390D01*
X94918Y485760D01*
X93808D02*X94918D01*
X93808D02*X93438Y485390D01*
Y482800D02*Y485390D01*
Y484280D02*X95288D01*
X90000Y485390D02*X89630Y485760D01*
X88890D02*X89630D01*
X88890D02*X88520Y485390D01*
Y483170D02*Y485390D01*
X88890Y482800D02*X88520Y483170D01*
X88890Y482800D02*X89630D01*
X90000Y483170D02*X89630Y482800D01*
X88520Y484280D02*X89630D01*
G54D25*X75402Y282870D02*Y254130D01*
X50598Y282870D02*Y254130D01*
X75402Y231870D02*Y203130D01*
X50598Y231870D02*Y203130D01*
X75402Y486870D02*Y458130D01*
X50598Y486870D02*Y458130D01*
X75402Y537870D02*Y509130D01*
X50598Y537870D02*Y509130D01*
X75402Y435870D02*Y407130D01*
X50598Y435870D02*Y407130D01*
X75402Y384870D02*Y356130D01*
X50598Y384870D02*Y356130D01*
X75402Y333870D02*Y305130D01*
X50598Y333870D02*Y305130D01*
X75402Y180870D02*Y152130D01*
X50598Y180870D02*Y152130D01*
X75402Y129870D02*Y101130D01*
X50598Y129870D02*Y101130D01*
X75402Y78870D02*Y50130D01*
X50598Y78870D02*Y50130D01*
X86598Y70870D02*Y42130D01*
X111402Y70870D02*Y42130D01*
X86598Y121870D02*Y93130D01*
X111402Y121870D02*Y93130D01*
X86598Y172870D02*Y144130D01*
X111402Y172870D02*Y144130D01*
X86598Y223870D02*Y195130D01*
X111402Y223870D02*Y195130D01*
X86598Y274870D02*Y246130D01*
X111402Y274870D02*Y246130D01*
X86598Y325870D02*Y297130D01*
X111402Y325870D02*Y297130D01*
X86598Y376870D02*Y348130D01*
X111402Y376870D02*Y348130D01*
X86598Y427870D02*Y399130D01*
X111402Y427870D02*Y399130D01*
X86598Y478870D02*Y450130D01*
X111402Y478870D02*Y450130D01*
X86598Y529870D02*Y501130D01*
X111402Y529870D02*Y501130D01*
M02*
