G04 start of page 7 for group -4062 idx -4062 *
G04 Title: (unknown), soldermask *
G04 Creator: pcb 4.0.2 *
G04 CreationDate: Fri Feb  3 04:46:59 2023 UTC *
G04 For: ndholmes *
G04 Format: Gerber/RS-274X *
G04 PCB-Dimensions (mil): 1620.00 5800.00 *
G04 PCB-Coordinate-Origin: lower left *
%MOIN*%
%FSLAX25Y25*%
%LNBOTTOMMASK*%
%ADD22C,0.0001*%
G54D22*G36*
X53251Y364501D02*Y355239D01*
X72749D01*
Y364501D01*
X53251D01*
G37*
G36*
Y355239D01*
X72749D01*
Y364501D01*
X53251D01*
G37*
G36*
X49900Y365400D02*X41100D01*
Y347100D01*
X49900D01*
Y365400D01*
G37*
G36*
Y385900D02*X41100D01*
Y367600D01*
X49900D01*
Y385900D01*
G37*
G36*
X53251Y334761D02*Y320775D01*
X72749D01*
Y334761D01*
X53251D01*
G37*
G36*
Y320775D01*
X72749D01*
Y334761D01*
X53251D01*
G37*
G36*
Y313501D02*Y304239D01*
X72749D01*
Y313501D01*
X53251D01*
G37*
G36*
Y304239D01*
X72749D01*
Y313501D01*
X53251D01*
G37*
G36*
X49900Y314400D02*X41100D01*
Y296100D01*
X49900D01*
Y314400D01*
G37*
G36*
Y334900D02*X41100D01*
Y316600D01*
X49900D01*
Y334900D01*
G37*
G36*
X53251Y262501D02*Y253239D01*
X72749D01*
Y262501D01*
X53251D01*
G37*
G36*
Y253239D01*
X72749D01*
Y262501D01*
X53251D01*
G37*
G36*
Y283761D02*Y269775D01*
X72749D01*
Y283761D01*
X53251D01*
G37*
G36*
Y269775D01*
X72749D01*
Y283761D01*
X53251D01*
G37*
G36*
X49900Y263400D02*X41100D01*
Y245100D01*
X49900D01*
Y263400D01*
G37*
G36*
Y283900D02*X41100D01*
Y265600D01*
X49900D01*
Y283900D01*
G37*
G36*
X53251Y487761D02*Y473775D01*
X72749D01*
Y487761D01*
X53251D01*
G37*
G36*
Y473775D01*
X72749D01*
Y487761D01*
X53251D01*
G37*
G36*
Y466501D02*Y457239D01*
X72749D01*
Y466501D01*
X53251D01*
G37*
G36*
Y457239D01*
X72749D01*
Y466501D01*
X53251D01*
G37*
G36*
X49900Y467400D02*X41100D01*
Y449100D01*
X49900D01*
Y467400D01*
G37*
G36*
Y487900D02*X41100D01*
Y469600D01*
X49900D01*
Y487900D01*
G37*
G36*
X53251Y517501D02*Y508239D01*
X72749D01*
Y517501D01*
X53251D01*
G37*
G36*
Y508239D01*
X72749D01*
Y517501D01*
X53251D01*
G37*
G36*
Y538761D02*Y524775D01*
X72749D01*
Y538761D01*
X53251D01*
G37*
G36*
Y524775D01*
X72749D01*
Y538761D01*
X53251D01*
G37*
G36*
X49900Y518400D02*X41100D01*
Y500100D01*
X49900D01*
Y518400D01*
G37*
G36*
Y538900D02*X41100D01*
Y520600D01*
X49900D01*
Y538900D01*
G37*
G36*
X53251Y436761D02*Y422775D01*
X72749D01*
Y436761D01*
X53251D01*
G37*
G36*
Y422775D01*
X72749D01*
Y436761D01*
X53251D01*
G37*
G36*
X49900Y416400D02*X41100D01*
Y398100D01*
X49900D01*
Y416400D01*
G37*
G36*
Y436900D02*X41100D01*
Y418600D01*
X49900D01*
Y436900D01*
G37*
G36*
X53251Y415501D02*Y406239D01*
X72749D01*
Y415501D01*
X53251D01*
G37*
G36*
Y406239D01*
X72749D01*
Y415501D01*
X53251D01*
G37*
G36*
Y385761D02*Y371775D01*
X72749D01*
Y385761D01*
X53251D01*
G37*
G36*
Y371775D01*
X72749D01*
Y385761D01*
X53251D01*
G37*
G36*
Y232761D02*Y218775D01*
X72749D01*
Y232761D01*
X53251D01*
G37*
G36*
Y218775D01*
X72749D01*
Y232761D01*
X53251D01*
G37*
G36*
Y211501D02*Y202239D01*
X72749D01*
Y211501D01*
X53251D01*
G37*
G36*
Y202239D01*
X72749D01*
Y211501D01*
X53251D01*
G37*
G36*
X49900Y212400D02*X41100D01*
Y194100D01*
X49900D01*
Y212400D01*
G37*
G36*
Y232900D02*X41100D01*
Y214600D01*
X49900D01*
Y232900D01*
G37*
G36*
X53251Y181761D02*Y167775D01*
X72749D01*
Y181761D01*
X53251D01*
G37*
G36*
Y167775D01*
X72749D01*
Y181761D01*
X53251D01*
G37*
G36*
X49900Y161400D02*X41100D01*
Y143100D01*
X49900D01*
Y161400D01*
G37*
G36*
Y181900D02*X41100D01*
Y163600D01*
X49900D01*
Y181900D01*
G37*
G36*
X53251Y160501D02*Y151239D01*
X72749D01*
Y160501D01*
X53251D01*
G37*
G36*
Y151239D01*
X72749D01*
Y160501D01*
X53251D01*
G37*
G36*
Y130761D02*Y116775D01*
X72749D01*
Y130761D01*
X53251D01*
G37*
G36*
Y116775D01*
X72749D01*
Y130761D01*
X53251D01*
G37*
G36*
Y109501D02*Y100239D01*
X72749D01*
Y109501D01*
X53251D01*
G37*
G36*
Y100239D01*
X72749D01*
Y109501D01*
X53251D01*
G37*
G36*
X49900Y110400D02*X41100D01*
Y92100D01*
X49900D01*
Y110400D01*
G37*
G36*
Y130900D02*X41100D01*
Y112600D01*
X49900D01*
Y130900D01*
G37*
G36*
X53251Y79761D02*Y65775D01*
X72749D01*
Y79761D01*
X53251D01*
G37*
G36*
Y65775D01*
X72749D01*
Y79761D01*
X53251D01*
G37*
G36*
Y58501D02*Y49239D01*
X72749D01*
Y58501D01*
X53251D01*
G37*
G36*
Y49239D01*
X72749D01*
Y58501D01*
X53251D01*
G37*
G36*
X49900Y59400D02*X41100D01*
Y41100D01*
X49900D01*
Y59400D01*
G37*
G36*
Y79900D02*X41100D01*
Y61600D01*
X49900D01*
Y79900D01*
G37*
G36*
X89251Y71761D02*Y62499D01*
X108749D01*
Y71761D01*
X89251D01*
G37*
G36*
Y62499D01*
X108749D01*
Y71761D01*
X89251D01*
G37*
G36*
Y55225D02*Y41239D01*
X108749D01*
Y55225D01*
X89251D01*
G37*
G36*
Y41239D01*
X108749D01*
Y55225D01*
X89251D01*
G37*
G36*
X120900Y79900D02*X112100D01*
Y61600D01*
X120900D01*
Y79900D01*
G37*
G36*
Y59400D02*X112100D01*
Y41100D01*
X120900D01*
Y59400D01*
G37*
G36*
X89251Y122761D02*Y113499D01*
X108749D01*
Y122761D01*
X89251D01*
G37*
G36*
Y113499D01*
X108749D01*
Y122761D01*
X89251D01*
G37*
G36*
Y106225D02*Y92239D01*
X108749D01*
Y106225D01*
X89251D01*
G37*
G36*
Y92239D01*
X108749D01*
Y106225D01*
X89251D01*
G37*
G36*
X120900Y130900D02*X112100D01*
Y112600D01*
X120900D01*
Y130900D01*
G37*
G36*
Y110400D02*X112100D01*
Y92100D01*
X120900D01*
Y110400D01*
G37*
G36*
X89251Y173761D02*Y164499D01*
X108749D01*
Y173761D01*
X89251D01*
G37*
G36*
Y164499D01*
X108749D01*
Y173761D01*
X89251D01*
G37*
G36*
Y157225D02*Y143239D01*
X108749D01*
Y157225D01*
X89251D01*
G37*
G36*
Y143239D01*
X108749D01*
Y157225D01*
X89251D01*
G37*
G36*
X120900Y181900D02*X112100D01*
Y163600D01*
X120900D01*
Y181900D01*
G37*
G36*
Y161400D02*X112100D01*
Y143100D01*
X120900D01*
Y161400D01*
G37*
G36*
X89251Y208225D02*Y194239D01*
X108749D01*
Y208225D01*
X89251D01*
G37*
G36*
Y194239D01*
X108749D01*
Y208225D01*
X89251D01*
G37*
G36*
Y224761D02*Y215499D01*
X108749D01*
Y224761D01*
X89251D01*
G37*
G36*
Y215499D01*
X108749D01*
Y224761D01*
X89251D01*
G37*
G36*
X120900Y232900D02*X112100D01*
Y214600D01*
X120900D01*
Y232900D01*
G37*
G36*
Y212400D02*X112100D01*
Y194100D01*
X120900D01*
Y212400D01*
G37*
G36*
X89251Y259225D02*Y245239D01*
X108749D01*
Y259225D01*
X89251D01*
G37*
G36*
Y245239D01*
X108749D01*
Y259225D01*
X89251D01*
G37*
G36*
X120900Y283900D02*X112100D01*
Y265600D01*
X120900D01*
Y283900D01*
G37*
G36*
Y263400D02*X112100D01*
Y245100D01*
X120900D01*
Y263400D01*
G37*
G36*
X89251Y275761D02*Y266499D01*
X108749D01*
Y275761D01*
X89251D01*
G37*
G36*
Y266499D01*
X108749D01*
Y275761D01*
X89251D01*
G37*
G36*
Y310225D02*Y296239D01*
X108749D01*
Y310225D01*
X89251D01*
G37*
G36*
Y296239D01*
X108749D01*
Y310225D01*
X89251D01*
G37*
G36*
Y326761D02*Y317499D01*
X108749D01*
Y326761D01*
X89251D01*
G37*
G36*
Y317499D01*
X108749D01*
Y326761D01*
X89251D01*
G37*
G36*
X120900Y334900D02*X112100D01*
Y316600D01*
X120900D01*
Y334900D01*
G37*
G36*
Y314400D02*X112100D01*
Y296100D01*
X120900D01*
Y314400D01*
G37*
G36*
X89251Y361225D02*Y347239D01*
X108749D01*
Y361225D01*
X89251D01*
G37*
G36*
Y347239D01*
X108749D01*
Y361225D01*
X89251D01*
G37*
G36*
Y377761D02*Y368499D01*
X108749D01*
Y377761D01*
X89251D01*
G37*
G36*
Y368499D01*
X108749D01*
Y377761D01*
X89251D01*
G37*
G36*
X120900Y385900D02*X112100D01*
Y367600D01*
X120900D01*
Y385900D01*
G37*
G36*
Y365400D02*X112100D01*
Y347100D01*
X120900D01*
Y365400D01*
G37*
G36*
X89251Y428761D02*Y419499D01*
X108749D01*
Y428761D01*
X89251D01*
G37*
G36*
Y419499D01*
X108749D01*
Y428761D01*
X89251D01*
G37*
G36*
Y412225D02*Y398239D01*
X108749D01*
Y412225D01*
X89251D01*
G37*
G36*
Y398239D01*
X108749D01*
Y412225D01*
X89251D01*
G37*
G36*
X120900Y436900D02*X112100D01*
Y418600D01*
X120900D01*
Y436900D01*
G37*
G36*
Y416400D02*X112100D01*
Y398100D01*
X120900D01*
Y416400D01*
G37*
G36*
X89251Y463225D02*Y449239D01*
X108749D01*
Y463225D01*
X89251D01*
G37*
G36*
Y449239D01*
X108749D01*
Y463225D01*
X89251D01*
G37*
G36*
Y479761D02*Y470499D01*
X108749D01*
Y479761D01*
X89251D01*
G37*
G36*
Y470499D01*
X108749D01*
Y479761D01*
X89251D01*
G37*
G36*
X120900Y487900D02*X112100D01*
Y469600D01*
X120900D01*
Y487900D01*
G37*
G36*
Y467400D02*X112100D01*
Y449100D01*
X120900D01*
Y467400D01*
G37*
G36*
X89251Y514225D02*Y500239D01*
X108749D01*
Y514225D01*
X89251D01*
G37*
G36*
Y500239D01*
X108749D01*
Y514225D01*
X89251D01*
G37*
G36*
Y530761D02*Y521499D01*
X108749D01*
Y530761D01*
X89251D01*
G37*
G36*
Y521499D01*
X108749D01*
Y530761D01*
X89251D01*
G37*
G36*
X120900Y538900D02*X112100D01*
Y520600D01*
X120900D01*
Y538900D01*
G37*
G36*
Y518400D02*X112100D01*
Y500100D01*
X120900D01*
Y518400D01*
G37*
M02*
